<svg width="25" height="25" viewBox="0 0 25 25" fill="none" xmlns="http://www.w3.org/2000/svg">
<g clip-path="url(#clip0)">
<path d="M16.9433 5.90762H6.79761L7.3026 3.88773C7.37696 3.58733 7.25538 3.2719 6.99644 3.10022C6.74039 2.93 6.40278 2.93855 6.15244 3.12453L0.293008 7.51911C-0.0979135 7.81154 -0.0974252 8.39866 0.293008 8.6907L6.15244 13.0853C6.40278 13.272 6.73897 13.2798 6.99644 13.1096C7.25538 12.9379 7.37696 12.6225 7.3026 12.3221L6.79761 10.3022H16.9433C18.9632 10.3022 20.6054 11.9451 20.6054 13.9643C20.6054 15.9835 18.9632 17.6265 16.9433 17.6265H13.9648C13.56 17.6265 13.2324 17.9541 13.2324 18.3589V21.2886C13.2324 21.6935 13.56 22.0211 13.9648 22.0211H16.9433C21.3851 22.0211 25 18.4068 25 13.9643C25 9.52186 21.3851 5.90762 16.9433 5.90762Z" fill="#F98731"/>
</g>
<defs>
<clipPath id="clip0">
<rect width="25" height="25" fill="white"/>
</clipPath>
</defs>
</svg>
