<svg width="350" height="106" viewBox="0 0 350 106" fill="none" xmlns="http://www.w3.org/2000/svg">
<path d="M92.5156 34.3289H58.8848L78.1543 67.6906L92.5156 34.3289Z" fill="url(#paint0_linear)"/>
<path d="M237.538 93.0757H239.043V93.8028C239.043 94.1373 239.043 94.4282 239.043 94.4282C239.333 93.9217 239.759 93.5072 240.274 93.2319C240.788 92.9567 241.37 92.832 241.952 92.8721C244.257 92.8721 245.711 94.6972 245.711 97.3586C245.711 100.02 244.068 101.845 241.836 101.845C241.313 101.862 240.796 101.742 240.335 101.495C239.874 101.249 239.486 100.886 239.211 100.442H239.174C239.199 100.683 239.211 100.926 239.211 101.169V105.016H237.567L237.538 93.0757ZM241.552 100.442C242.904 100.442 244.024 99.3219 244.024 97.3732C244.024 95.4244 243.021 94.3118 241.603 94.3118C240.316 94.3118 239.131 95.2062 239.131 97.395C239.131 98.8929 239.959 100.449 241.552 100.449V100.442Z" fill="#808285"/>
<path d="M247.529 93.0757H249.114V94.5663C249.114 94.9226 249.114 95.2062 249.114 95.2062C249.261 94.5893 249.606 94.0373 250.096 93.6343C250.585 93.2313 251.193 92.9994 251.827 92.9739C251.967 92.9651 252.108 92.9651 252.249 92.9739V94.6027C252.093 94.5697 251.935 94.5526 251.776 94.5518C251.21 94.58 250.669 94.7919 250.235 95.1554C249.8 95.5189 249.496 96.0141 249.369 96.566C249.227 97.0672 249.161 97.5868 249.173 98.1076V101.612H247.529V93.0757Z" fill="#808285"/>
<path d="M258.175 96.2968H258.546V96.1441C258.583 95.8893 258.559 95.6294 258.478 95.3852C258.397 95.1409 258.259 94.919 258.077 94.737C257.895 94.5549 257.673 94.4178 257.429 94.3364C257.185 94.255 256.925 94.2316 256.67 94.2681C255.811 94.3033 254.981 94.5917 254.285 95.097L253.602 93.8972C254.534 93.2234 255.658 92.8666 256.808 92.8792C258.99 92.8792 260.19 94.0645 260.19 96.2314V101.649H258.67V100.834C258.67 100.449 258.67 100.158 258.67 100.158C258.424 100.675 258.033 101.11 257.546 101.411C257.058 101.711 256.494 101.865 255.921 101.852C254.467 101.852 253.013 100.951 253.013 99.2418C253.049 96.4132 256.736 96.2968 258.175 96.2968ZM256.278 100.529C257.666 100.529 258.568 99.0746 258.568 97.8021V97.533H258.139C256.903 97.533 254.671 97.6203 254.671 99.1618C254.681 99.3589 254.732 99.5518 254.82 99.7286C254.907 99.9055 255.03 100.063 255.18 100.191C255.331 100.318 255.506 100.414 255.694 100.473C255.883 100.531 256.081 100.55 256.278 100.529Z" fill="#808285"/>
<path d="M266.45 92.8792C267.044 92.8573 267.636 92.957 268.19 93.172C268.744 93.3871 269.248 93.713 269.672 94.1299L268.894 95.257C268.259 94.6361 267.411 94.2822 266.523 94.268C266.123 94.2575 265.724 94.3299 265.353 94.4806C264.981 94.6313 264.645 94.8571 264.365 95.1439C264.085 95.4306 263.868 95.7721 263.726 96.147C263.584 96.5218 263.522 96.9219 263.542 97.3221C263.527 97.7263 263.595 98.1294 263.741 98.5065C263.888 98.8835 264.11 99.2266 264.394 99.5147C264.678 99.8028 265.018 100.03 265.393 100.182C265.768 100.334 266.17 100.407 266.574 100.398C267.569 100.368 268.514 99.9567 269.214 99.249L269.875 100.449C269.427 100.898 268.892 101.251 268.304 101.487C267.715 101.723 267.085 101.838 266.45 101.823C265.26 101.823 264.119 101.35 263.278 100.509C262.437 99.6677 261.964 98.5265 261.964 97.3366C261.964 96.1467 262.437 95.0056 263.278 94.1642C264.119 93.3228 265.26 92.8501 266.45 92.8501V92.8792Z" fill="#808285"/>
<path d="M271.956 94.5299H270.844V93.2064H271.956V90.7341H273.549V93.2064H275.614V94.5299H273.549V98.3401C273.514 98.5932 273.537 98.8508 273.615 99.0939C273.693 99.337 273.825 99.5594 274.001 99.7444C274.177 99.9295 274.393 100.073 274.632 100.163C274.871 100.254 275.127 100.289 275.381 100.267C275.509 100.281 275.638 100.281 275.767 100.267V101.721C275.575 101.732 275.383 101.732 275.192 101.721C274.094 101.721 271.905 101.387 271.905 98.5219L271.956 94.5299Z" fill="#808285"/>
<path d="M277.437 89.6943H279.094V91.3741H277.437V89.6943ZM277.437 93.0829H279.08V101.649H277.437V93.0829Z" fill="#808285"/>
<path d="M285.481 92.8792C286.075 92.8573 286.667 92.957 287.221 93.172C287.775 93.3871 288.279 93.713 288.703 94.1299L287.954 95.257C287.32 94.6342 286.471 94.28 285.583 94.268C285.183 94.2585 284.786 94.3316 284.415 94.4828C284.045 94.634 283.709 94.86 283.43 95.1466C283.151 95.4332 282.934 95.7744 282.793 96.1487C282.652 96.523 282.589 96.9225 282.609 97.3221C282.594 97.7257 282.662 98.1281 282.808 98.5047C282.954 98.8813 283.175 99.224 283.459 99.512C283.742 99.8 284.081 100.027 284.455 100.179C284.829 100.332 285.23 100.406 285.634 100.398C286.631 100.367 287.578 99.9559 288.281 99.249L288.935 100.449C288.488 100.897 287.955 101.25 287.367 101.486C286.78 101.722 286.151 101.837 285.518 101.823C284.328 101.823 283.187 101.35 282.345 100.509C281.504 99.6677 281.031 98.5265 281.031 97.3366C281.031 96.1467 281.504 95.0056 282.345 94.1642C283.187 93.3228 284.328 92.8501 285.518 92.8501L285.481 92.8792Z" fill="#808285"/>
<path d="M294.287 92.8792C296.708 92.8792 297.995 94.6752 297.995 96.893C297.995 97.1112 297.944 97.6202 297.944 97.6202H291.691C291.686 98.0035 291.76 98.3836 291.909 98.7371C292.057 99.0905 292.277 99.4097 292.553 99.6749C292.83 99.9401 293.158 100.146 293.518 100.279C293.877 100.412 294.26 100.47 294.643 100.449C295.578 100.416 296.474 100.065 297.181 99.4526L297.857 100.652C296.933 101.443 295.757 101.876 294.541 101.874C293.943 101.898 293.347 101.799 292.789 101.583C292.23 101.367 291.723 101.038 291.297 100.617C290.872 100.196 290.537 99.6924 290.315 99.1368C290.092 98.5812 289.986 97.9857 290.004 97.3875C290.004 94.6389 291.843 92.8792 294.287 92.8792ZM296.315 96.3695C296.338 96.0872 296.301 95.8033 296.207 95.5362C296.112 95.2691 295.963 95.0248 295.768 94.8192C295.574 94.6135 295.338 94.451 295.076 94.3423C294.815 94.2336 294.534 94.181 294.25 94.188C293.635 94.1714 293.036 94.3863 292.571 94.7902C292.107 95.1942 291.811 95.7578 291.742 96.3695H296.315Z" fill="#808285"/>
<path d="M304.002 89.6943H305.645V94.0573C305.646 94.3001 305.634 94.5429 305.609 94.7844H305.645C305.937 94.1987 306.39 93.708 306.95 93.3695C307.51 93.0309 308.154 92.8584 308.808 92.872C310.823 92.872 311.753 93.97 311.753 96.1587V101.641H310.11V96.5514C310.11 95.3443 309.856 94.3699 308.488 94.3699C307.867 94.3779 307.266 94.5891 306.776 94.9712C306.286 95.3533 305.935 95.8854 305.776 96.4859C305.679 96.8559 305.635 97.2379 305.645 97.6203V101.634H304.002V89.6943Z" fill="#808285"/>
<path d="M318.494 96.2968H318.865V96.1441C318.901 95.8892 318.878 95.6294 318.796 95.3851C318.715 95.1409 318.578 94.919 318.396 94.7369C318.214 94.5549 317.992 94.4177 317.748 94.3363C317.503 94.2549 317.243 94.2316 316.989 94.268C316.127 94.3018 315.294 94.5903 314.596 95.097L313.92 93.8972C314.85 93.2244 315.972 92.8676 317.12 92.8792C319.301 92.8792 320.508 94.0644 320.508 96.2313V101.649H318.981V100.834C318.981 100.608 318.993 100.383 319.017 100.158H318.981C318.737 100.675 318.348 101.11 317.861 101.411C317.375 101.712 316.811 101.865 316.24 101.852C314.785 101.852 313.331 100.951 313.331 99.2418C313.346 96.4131 317.04 96.2968 318.494 96.2968ZM316.596 100.529C317.985 100.529 318.879 99.0745 318.879 97.802V97.533H318.494C317.258 97.533 315.025 97.6202 315.025 99.1618C315.036 99.3568 315.086 99.5477 315.173 99.723C315.259 99.8983 315.38 100.054 315.528 100.182C315.676 100.31 315.848 100.406 316.034 100.466C316.22 100.525 316.416 100.547 316.611 100.529H316.596Z" fill="#808285"/>
<path d="M322.804 93.0756H324.309V93.8027C324.309 94.1372 324.309 94.4281 324.309 94.4281C324.6 93.9228 325.027 93.5092 325.541 93.2341C326.055 92.9591 326.636 92.8336 327.218 92.872C329.523 92.872 330.977 94.6971 330.977 97.3585C330.977 100.02 329.334 101.845 327.101 101.845C326.579 101.862 326.061 101.742 325.6 101.495C325.14 101.249 324.752 100.886 324.476 100.442H324.44C324.465 100.683 324.477 100.926 324.476 101.169V105.015H322.833L322.804 93.0756ZM326.818 100.442C328.17 100.442 329.29 99.3218 329.29 97.3731C329.29 95.4243 328.294 94.3118 326.868 94.3118C325.581 94.3118 324.396 95.2062 324.396 97.3949C324.396 98.8928 325.247 100.449 326.818 100.449V100.442Z" fill="#808285"/>
<path d="M332.795 93.0757H334.3V93.8028C334.3 94.0118 334.287 94.2206 334.264 94.4282H334.3C334.59 93.9217 335.016 93.5072 335.531 93.2319C336.045 92.9567 336.627 92.832 337.209 92.8721C339.507 92.8721 340.968 94.6972 340.968 97.3586C340.968 100.02 339.325 101.845 337.085 101.845C336.563 101.861 336.046 101.74 335.585 101.494C335.125 101.247 334.737 100.885 334.46 100.442C334.46 100.442 334.46 100.747 334.46 101.169V105.016H332.824L332.795 93.0757ZM336.802 100.442C338.161 100.442 339.274 99.3219 339.274 97.3732C339.274 95.4244 338.278 94.3118 336.852 94.3118C335.565 94.3118 334.38 95.2062 334.38 97.395C334.38 98.8929 335.216 100.449 336.802 100.449V100.442Z" fill="#808285"/>
<path d="M342.155 103.43C342.448 103.637 342.793 103.758 343.151 103.779C343.501 103.748 343.833 103.612 344.104 103.388C344.375 103.165 344.573 102.866 344.671 102.528L345.1 101.547L341.529 93.0754H343.376L345.521 98.6745C345.648 99.0153 345.757 99.3624 345.849 99.7143C345.849 99.7143 345.987 99.1326 346.139 98.6963L348.219 93.0754H350.001L345.987 103.183C345.797 103.77 345.426 104.281 344.927 104.643C344.427 105.005 343.826 105.199 343.209 105.197C342.617 105.191 342.04 105.008 341.551 104.674L342.155 103.43Z" fill="#808285"/>
<path d="M122.292 34.0381C130.509 34.0381 134.581 38.8227 134.581 38.8227L131.607 43.1857C129.18 40.8238 125.94 39.4812 122.554 39.4336C115.959 39.4336 111.167 44.3491 111.167 51.068C111.167 57.7869 115.959 62.8333 122.743 62.8333C128.822 62.8333 132.836 58.4704 132.836 58.4704L135.359 63.0587C135.359 63.0587 130.829 68.2942 122.27 68.2942C111.989 68.2942 104.746 61.0227 104.746 51.1625C104.768 41.4478 111.981 34.0381 122.292 34.0381Z" fill="#808285"/>
<path d="M156.439 34.0381C166.205 34.0381 174.095 41.2151 174.095 51.1116C174.095 61.0082 166.205 68.3088 156.439 68.3088C146.674 68.3088 138.784 61.0373 138.784 51.1116C138.784 41.186 146.674 34.0381 156.439 34.0381ZM156.439 62.8769C162.649 62.8769 167.688 57.9614 167.688 51.1116C167.688 44.2618 162.649 39.4772 156.439 39.4772C150.23 39.4772 145.183 44.3273 145.183 51.1116C145.183 57.896 150.295 62.8769 156.439 62.8769Z" fill="#808285"/>
<path d="M180.217 34.8161H186.274V40.5024C186.274 41.3232 186.233 42.1435 186.15 42.9602H186.274C187.765 38.1755 191.582 34.4307 196.621 34.4307C197.164 34.4342 197.706 34.4755 198.243 34.5543V40.7642C197.648 40.6374 197.041 40.5716 196.432 40.5678C192.418 40.5678 188.732 43.4183 187.248 48.2684C186.696 50.1793 186.434 52.1623 186.47 54.151V67.5379H180.217V34.8161Z" fill="#808285"/>
<path d="M217.063 34.0381C226.305 34.0381 231.22 40.8951 231.22 49.3665C231.22 50.2027 231.031 52.0787 231.031 52.0787H207.166C207.486 59.2557 212.598 62.8769 218.415 62.8769C224.043 62.8769 228.115 59.0667 228.115 59.0667L230.704 63.655C227.169 66.6675 222.674 68.318 218.03 68.3088C207.748 68.3088 200.694 60.8773 200.694 51.1771C200.694 40.7642 207.748 34.0381 217.063 34.0381ZM224.821 47.3595C224.625 41.7314 221.135 39.0191 216.932 39.0191C212.147 39.0191 208.264 41.9931 207.362 47.3595H224.821Z" fill="#808285"/>
<path d="M237.56 34.8161H243.311V37.5939C243.311 38.8882 243.188 39.9862 243.188 39.9862H243.311C243.311 39.9862 246.096 34.0381 254.306 34.0381C263.104 34.0381 268.667 41.026 268.667 51.1771C268.667 61.5899 262.392 68.3088 253.855 68.3088C251.861 68.3711 249.886 67.9081 248.127 66.9662C246.368 66.0244 244.888 64.6367 243.835 62.9424H243.704C243.796 63.8897 243.839 64.8411 243.835 65.7928V80.4595H237.56V34.8161ZM252.888 62.9424C258.058 62.9424 262.341 58.674 262.341 51.2425C262.341 44.1237 258.523 39.5354 253.092 39.5354C248.176 39.5354 243.639 42.9602 243.639 51.3079C243.639 57.1252 246.867 62.9424 252.888 62.9424Z" fill="#58595B"/>
<path d="M274.683 21.8801H280.951V57.5106C280.951 61.459 282.507 62.1716 284.441 62.1716C284.81 62.1705 285.179 62.1486 285.546 62.1062V67.6616C284.859 67.7462 284.167 67.7899 283.474 67.7925C279.918 67.7925 274.683 66.8254 274.683 58.6086V21.8801Z" fill="#58595B"/>
<path d="M290.461 34.8162H296.729V54.3475C296.729 58.8704 297.638 62.4916 302.873 62.4916C309.534 62.4916 313.483 56.6089 313.483 50.13V34.8162H319.751V67.538H313.672V63.1751C313.67 62.3758 313.714 61.5771 313.803 60.7828H313.672C312.59 63.0485 310.883 64.9578 308.752 66.286C306.621 67.6142 304.155 68.3059 301.645 68.2797C294.271 68.2797 290.461 64.404 290.461 55.7363V34.8162Z" fill="#58595B"/>
<path d="M328.673 59.0667C331.216 61.4568 334.557 62.8151 338.046 62.8769C340.766 62.8769 343.478 61.4226 343.478 58.8049C343.478 52.7913 326.666 54.0202 326.666 43.3529C326.666 37.4048 331.967 34.0381 338.497 34.0381C345.681 34.0381 349.041 37.6738 349.041 37.6738L346.518 42.3931C344.277 40.4577 341.399 39.4215 338.439 39.4845C335.719 39.4845 333.065 40.6479 333.065 43.4983C333.065 49.381 349.884 48.0867 349.884 58.8194C349.884 64.2513 345.223 68.3233 338.046 68.3233C333.442 68.414 328.986 66.6962 325.634 63.5387L328.673 59.0667Z" fill="#58595B"/>
<path d="M78.1528 67.6978V25.7993L58.6143 33.8634L78.1528 67.6978Z" fill="#FDC17B"/>
<path d="M58.6167 33.8489L78.1553 67.6978H39.0781L58.6167 33.8489Z" fill="#F68A33"/>
<path d="M39.0855 0.00708008L58.6168 33.8415H19.5469L39.0855 0.00708008Z" fill="#FFCB3B"/>
<path d="M19.5381 33.8418H58.6225L39.0767 67.698L19.5381 33.8418Z" fill="#E4018B"/>
<path d="M21.0948 36.5176L21.0869 36.5255V36.5176H21.0948Z" fill="#E51E25"/>
<path d="M39.0844 0L19.5459 33.8417L0 0H39.0844Z" fill="#FFF68F"/>
<path d="M30.6786 53.1404L39.0772 67.6762H0L19.5386 33.8418L30.6786 53.1404Z" fill="#60C5BA"/>
<path d="M0 67.676H39.0772L19.5386 101.51L0 67.676Z" fill="#B0DFE3"/>
<defs>
<linearGradient id="paint0_linear" x1="3227.91" y1="2374.66" x2="4389.87" y2="1698.67" gradientUnits="userSpaceOnUse">
<stop offset="0.24" stop-color="#BCBEC0"/>
<stop offset="1" stop-color="#E6E7E8"/>
</linearGradient>
</defs>
</svg>
