<svg width="241" height="150" viewBox="0 0 241 150" fill="none" xmlns="http://www.w3.org/2000/svg">
<g opacity="0.8">
<path d="M143.729 3.34431C143.586 3.34283 143.447 3.30938 143.335 3.24933C143.224 3.18929 143.146 3.10614 143.114 3.01325C143.093 2.95915 143.089 2.90282 143.102 2.84762C143.115 2.79242 143.144 2.73947 143.188 2.69194C143.232 2.64442 143.291 2.60328 143.359 2.57098C143.428 2.53868 143.506 2.51588 143.588 2.50394C145.01 2.28884 146.406 2.00513 147.766 1.65509C147.844 1.63447 147.928 1.62426 148.012 1.62504C148.096 1.62583 148.179 1.63759 148.256 1.65966C148.334 1.68173 148.404 1.71368 148.462 1.75367C148.521 1.79367 148.567 1.84094 148.599 1.89277C148.63 1.94461 148.645 1.99999 148.644 2.05577C148.643 2.11156 148.625 2.16664 148.592 2.21787C148.558 2.26911 148.51 2.3155 148.45 2.35439C148.389 2.39327 148.318 2.4239 148.24 2.44452C146.824 2.81957 145.368 3.12319 143.883 3.35279L143.729 3.34431Z" fill="#F98731"/>
<path d="M95.5785 149.983C95.4139 149.981 95.2565 149.938 95.1377 149.863C95.0189 149.787 94.9475 149.685 94.9379 149.576C94.9344 149.52 94.9476 149.464 94.9767 149.412C95.0057 149.36 95.0501 149.311 95.1072 149.27C95.1643 149.229 95.2331 149.196 95.3096 149.173C95.3861 149.15 95.4688 149.136 95.5529 149.134C98.5129 149.032 101.537 148.854 104.523 148.591C104.69 148.579 104.858 148.61 104.992 148.678C105.126 148.746 105.215 148.846 105.24 148.956C105.253 149.011 105.248 149.068 105.227 149.122C105.206 149.176 105.169 149.227 105.117 149.271C105.066 149.316 105.001 149.353 104.928 149.38C104.854 149.408 104.773 149.425 104.689 149.431C101.665 149.703 98.6026 149.881 95.6042 149.975L95.5785 149.983ZM113.518 148.413C113.348 148.425 113.178 148.392 113.044 148.321C112.911 148.251 112.825 148.148 112.807 148.035C112.788 147.922 112.838 147.81 112.944 147.721C113.051 147.633 113.207 147.576 113.377 147.564C116.388 147.131 119.322 146.622 122.09 146.044C122.172 146.022 122.261 146.011 122.349 146.012C122.438 146.014 122.526 146.027 122.606 146.052C122.687 146.077 122.758 146.112 122.817 146.157C122.875 146.201 122.92 146.253 122.946 146.309C122.973 146.365 122.982 146.424 122.972 146.483C122.963 146.541 122.935 146.598 122.89 146.649C122.846 146.699 122.786 146.744 122.715 146.779C122.643 146.813 122.561 146.838 122.475 146.851C119.668 147.437 116.708 147.954 113.646 148.396L113.518 148.413ZM130.752 144.746C130.631 144.746 130.511 144.723 130.409 144.679C130.306 144.636 130.225 144.573 130.176 144.5C130.139 144.449 130.118 144.394 130.113 144.338C130.109 144.282 130.121 144.226 130.15 144.173C130.179 144.12 130.223 144.071 130.28 144.03C130.337 143.988 130.406 143.954 130.483 143.931C132.655 143.288 134.75 142.536 136.749 141.681L138.274 141.002C138.415 140.941 138.587 140.919 138.753 140.941C138.919 140.963 139.064 141.028 139.158 141.121C139.206 141.167 139.24 141.218 139.258 141.272C139.276 141.327 139.277 141.383 139.261 141.437C139.246 141.492 139.214 141.544 139.168 141.59C139.121 141.636 139.061 141.676 138.992 141.707L137.454 142.386C135.411 143.266 133.269 144.04 131.047 144.703C130.967 144.728 130.88 144.743 130.791 144.746H130.752ZM145.834 138.133C145.742 138.133 145.652 138.12 145.568 138.095C145.484 138.07 145.409 138.034 145.347 137.989C145.237 137.903 145.182 137.791 145.194 137.679C145.206 137.566 145.284 137.461 145.411 137.386C147.681 136.089 149.786 134.669 151.703 133.142C151.814 133.056 151.972 133.003 152.142 132.994C152.312 132.984 152.481 133.019 152.613 133.091C152.678 133.126 152.731 133.17 152.77 133.219C152.809 133.268 152.833 133.322 152.841 133.377C152.848 133.433 152.838 133.489 152.812 133.541C152.786 133.594 152.744 133.643 152.69 133.685C150.732 135.237 148.589 136.681 146.283 138.006C146.175 138.081 146.028 138.126 145.873 138.133H145.834ZM157.226 128.881C157.122 128.881 157.021 128.864 156.931 128.83C156.78 128.779 156.666 128.691 156.613 128.584C156.56 128.477 156.573 128.361 156.649 128.261C157.068 127.729 157.452 127.186 157.802 126.631C158.594 125.364 159.236 124.059 159.724 122.727C159.744 122.671 159.781 122.618 159.832 122.572C159.883 122.526 159.947 122.486 160.021 122.456C160.094 122.426 160.176 122.406 160.262 122.397C160.347 122.388 160.435 122.391 160.519 122.404C160.603 122.417 160.682 122.442 160.752 122.475C160.822 122.509 160.882 122.551 160.927 122.6C160.972 122.649 161.002 122.704 161.016 122.76C161.029 122.817 161.026 122.875 161.006 122.93C160.506 124.307 159.842 125.655 159.02 126.962C158.661 127.531 158.263 128.091 157.828 128.66C157.774 128.728 157.692 128.784 157.593 128.823C157.493 128.862 157.38 128.882 157.264 128.881H157.226ZM161.672 117.319C161.587 117.316 161.503 117.302 161.426 117.277C161.35 117.252 161.281 117.217 161.225 117.174C161.169 117.132 161.126 117.082 161.1 117.028C161.073 116.974 161.063 116.917 161.07 116.861C161.185 115.707 161.249 114.484 161.249 113.135C161.249 112.388 161.249 111.649 161.249 110.902C161.246 110.846 161.259 110.789 161.289 110.736C161.319 110.684 161.365 110.635 161.423 110.594C161.481 110.553 161.552 110.52 161.63 110.497C161.708 110.474 161.792 110.462 161.877 110.461C161.962 110.458 162.046 110.467 162.125 110.487C162.204 110.507 162.277 110.538 162.338 110.576C162.399 110.615 162.447 110.662 162.48 110.713C162.514 110.765 162.531 110.821 162.53 110.877C162.53 111.632 162.53 112.379 162.53 113.135C162.53 114.51 162.466 115.749 162.351 116.92C162.341 117.029 162.27 117.13 162.15 117.204C162.031 117.278 161.874 117.32 161.71 117.319H161.672ZM161.429 105.308C161.265 105.308 161.108 105.267 160.989 105.193C160.869 105.119 160.798 105.017 160.788 104.909C160.673 103.212 160.557 101.327 160.557 99.4766V98.8739C160.551 98.8176 160.564 98.761 160.594 98.7082C160.624 98.6554 160.672 98.6076 160.733 98.568C160.794 98.5285 160.867 98.4981 160.947 98.4791C161.027 98.4602 161.113 98.4529 161.198 98.458C161.368 98.458 161.531 98.5027 161.651 98.5823C161.771 98.6619 161.839 98.7698 161.839 98.8824V99.4766C161.839 101.31 161.954 103.152 162.069 104.867C162.073 104.923 162.059 104.978 162.03 105.031C162.001 105.083 161.957 105.131 161.9 105.172C161.843 105.213 161.774 105.246 161.697 105.269C161.621 105.293 161.538 105.306 161.454 105.308H161.429ZM216.207 100.079C215.041 100.079 213.901 100.079 212.812 100.028C212.728 100.026 212.645 100.013 212.568 99.9896C212.492 99.9663 212.423 99.9331 212.366 99.8921C212.309 99.8511 212.265 99.8031 212.235 99.7507C212.206 99.6983 212.193 99.6427 212.197 99.587C212.2 99.5312 212.22 99.4764 212.255 99.4258C212.29 99.3751 212.34 99.3296 212.402 99.2917C212.464 99.2539 212.537 99.2245 212.616 99.2052C212.695 99.186 212.779 99.1772 212.863 99.1795C213.939 99.1795 215.067 99.2304 216.207 99.2304C218.086 99.2367 219.964 99.1744 221.833 99.0437C222.003 99.0313 222.173 99.0641 222.306 99.135C222.44 99.2058 222.525 99.3089 222.544 99.4214C222.562 99.534 222.513 99.6469 222.406 99.7352C222.299 99.8236 222.144 99.8802 221.974 99.8925C220.071 100.022 218.159 100.085 216.246 100.079H216.207ZM203.791 99.6464C200.792 99.4936 197.743 99.3153 194.744 99.1116C194.66 99.1063 194.578 99.09 194.503 99.0636C194.429 99.0372 194.363 99.0012 194.309 98.9578C194.255 98.9144 194.215 98.8644 194.191 98.8107C194.167 98.7569 194.159 98.7005 194.168 98.6447C194.176 98.5889 194.2 98.5346 194.24 98.4851C194.28 98.4357 194.334 98.3919 194.4 98.3564C194.465 98.3208 194.541 98.2943 194.622 98.2782C194.703 98.2621 194.788 98.2569 194.872 98.2627C197.858 98.4665 200.895 98.6532 203.842 98.806C204.012 98.806 204.175 98.8507 204.295 98.9303C204.415 99.0099 204.483 99.1179 204.483 99.2304C204.483 99.343 204.415 99.451 204.295 99.5305C204.175 99.6101 204.012 99.6549 203.842 99.6549L203.791 99.6464ZM230.7 98.4325C230.577 98.4315 230.457 98.408 230.353 98.3645C230.249 98.3211 230.165 98.2594 230.11 98.1863C230.041 98.0839 230.036 97.9674 230.096 97.8624C230.156 97.7574 230.276 97.6724 230.431 97.6261C233.117 96.8719 235.393 95.5926 236.953 93.9591C236.993 93.9066 237.048 93.8601 237.117 93.8226C237.185 93.7851 237.264 93.7574 237.349 93.7412C237.435 93.7251 237.524 93.7208 237.612 93.7287C237.7 93.7366 237.784 93.7566 237.86 93.7872C237.936 93.8179 238.001 93.8586 238.051 93.9068C238.102 93.9551 238.137 94.0097 238.154 94.0674C238.171 94.125 238.17 94.1844 238.151 94.2417C238.132 94.2991 238.095 94.3531 238.042 94.4005C236.355 96.1801 233.887 97.5752 230.969 98.3986C230.884 98.4221 230.792 98.4337 230.7 98.4325ZM185.787 98.4325H185.711C182.725 98.1779 179.688 97.8893 176.741 97.5837C176.658 97.5754 176.578 97.5563 176.505 97.5275C176.433 97.4986 176.37 97.4607 176.32 97.4157C176.27 97.3708 176.234 97.3197 176.214 97.2655C176.194 97.2113 176.19 97.155 176.203 97.0998C176.231 96.9893 176.323 96.8904 176.459 96.8239C176.596 96.7574 176.765 96.7285 176.933 96.7433C179.906 97.0489 182.917 97.3375 185.903 97.5922C186.073 97.5989 186.232 97.6501 186.345 97.7345C186.458 97.8188 186.515 97.9295 186.505 98.042C186.495 98.1546 186.418 98.2599 186.29 98.3347C186.163 98.4095 185.996 98.4478 185.826 98.441L185.787 98.4325ZM167.848 96.5905H167.733C164.773 96.234 161.774 95.8435 158.827 95.4361C158.657 95.4136 158.508 95.3473 158.412 95.2517C158.316 95.1562 158.281 95.0393 158.315 94.9268C158.349 94.8142 158.449 94.7152 158.593 94.6515C158.737 94.5878 158.914 94.5647 159.084 94.5872C162.031 94.9947 165.016 95.3851 167.964 95.7417C168.047 95.7509 168.127 95.771 168.199 95.8008C168.27 95.8306 168.332 95.8695 168.381 95.9153C168.43 95.9611 168.465 96.0128 168.483 96.0675C168.502 96.1222 168.504 96.1788 168.489 96.234C168.457 96.3291 168.378 96.4144 168.264 96.476C168.15 96.5377 168.008 96.572 167.861 96.5735L167.848 96.5905ZM150.101 94.1289H149.947C147.026 93.6705 144.053 93.1781 141.144 92.6688C141.06 92.6549 140.981 92.6301 140.911 92.5959C140.842 92.5617 140.783 92.5188 140.738 92.4695C140.694 92.4202 140.664 92.3656 140.651 92.3088C140.639 92.252 140.643 92.194 140.664 92.1383C140.685 92.0826 140.722 92.0301 140.774 91.984C140.826 91.9378 140.89 91.8988 140.965 91.8693C141.039 91.8397 141.121 91.8201 141.207 91.8117C141.293 91.8032 141.381 91.806 141.465 91.82C144.373 92.3293 147.321 92.8216 150.242 93.2715C150.408 93.2997 150.552 93.3693 150.642 93.4657C150.733 93.5622 150.764 93.6781 150.729 93.7893C150.695 93.8806 150.616 93.9619 150.505 94.0202C150.393 94.0786 150.256 94.1109 150.114 94.1119L150.101 94.1289ZM161.864 93.3309H161.762C161.595 93.3121 161.446 93.2512 161.345 93.161C161.245 93.0707 161.201 92.9582 161.224 92.8471C161.672 90.8288 162.432 88.8463 163.492 86.9306C163.549 86.8248 163.668 86.7386 163.822 86.6908C163.976 86.6431 164.152 86.6377 164.312 86.676C164.471 86.7143 164.601 86.793 164.674 86.8949C164.746 86.9967 164.754 87.1134 164.696 87.2192C163.675 89.0775 162.945 91.0003 162.518 92.9574C162.493 93.0579 162.415 93.1491 162.297 93.2146C162.18 93.28 162.031 93.3153 161.877 93.314L161.864 93.3309ZM132.559 91.0645C132.5 91.0723 132.439 91.0723 132.38 91.0645C129.497 90.5128 126.562 89.9186 123.692 89.3074C123.611 89.2911 123.536 89.2641 123.471 89.2281C123.406 89.1921 123.353 89.1478 123.315 89.0979C123.277 89.0479 123.254 88.9934 123.248 88.9375C123.243 88.8816 123.254 88.8255 123.282 88.7726C123.335 88.6657 123.449 88.5771 123.601 88.5262C123.752 88.4752 123.928 88.4662 124.089 88.501C126.947 89.1037 129.855 89.6979 132.738 90.2496C132.902 90.2811 133.039 90.3543 133.121 90.453C133.203 90.5517 133.222 90.6678 133.174 90.7759C133.129 90.857 133.047 90.9268 132.939 90.9755C132.831 91.0242 132.702 91.0494 132.572 91.0475L132.559 91.0645ZM239.311 88.883C239.162 88.881 239.018 88.8454 238.904 88.7822C238.79 88.7189 238.712 88.6317 238.683 88.5349C237.991 86.6636 236.399 84.9922 234.147 83.7729C234.087 83.7342 234.04 83.6879 234.007 83.6369C233.975 83.5859 233.958 83.5311 233.958 83.4758C233.958 83.4205 233.975 83.3657 234.007 83.3147C234.04 83.2636 234.087 83.2174 234.147 83.1787C234.206 83.1389 234.277 83.1073 234.355 83.0858C234.433 83.0643 234.517 83.0532 234.602 83.0532C234.686 83.0532 234.77 83.0643 234.848 83.0858C234.926 83.1073 234.997 83.1389 235.056 83.1787C237.52 84.5174 239.253 86.3542 239.99 88.4076C240.007 88.4622 240.007 88.5185 239.991 88.5733C239.975 88.628 239.943 88.6801 239.896 88.7266C239.85 88.7731 239.79 88.8131 239.721 88.8443C239.651 88.8755 239.572 88.8973 239.49 88.9084L239.311 88.883ZM115.299 87.3975C115.227 87.4063 115.153 87.4063 115.081 87.3975C112.16 86.7099 109.302 85.9969 106.56 85.2839C106.404 85.2405 106.279 85.1588 106.213 85.0559C106.146 84.953 106.142 84.837 106.201 84.7321C106.232 84.6802 106.278 84.6329 106.337 84.5929C106.396 84.5529 106.466 84.5209 106.543 84.4988C106.621 84.4768 106.704 84.465 106.788 84.4642C106.872 84.4635 106.956 84.4737 107.034 84.4944C109.751 85.2074 112.608 85.912 115.504 86.5996C115.663 86.6362 115.794 86.7129 115.868 86.813C115.942 86.9131 115.954 87.0285 115.901 87.1343C115.849 87.2087 115.766 87.2715 115.661 87.3151C115.557 87.3588 115.435 87.3815 115.312 87.3805L115.299 87.3975ZM98.436 82.958C98.3516 82.9705 98.2641 82.9705 98.1797 82.958C95.3607 82.1091 92.5929 81.2603 89.9661 80.369C89.8848 80.3466 89.8113 80.3133 89.7503 80.2712C89.6893 80.2291 89.642 80.1791 89.6115 80.1243C89.5809 80.0696 89.5677 80.0113 89.5728 79.953C89.5778 79.8947 89.6009 79.8378 89.6406 79.7857C89.6804 79.7336 89.736 79.6875 89.8038 79.6503C89.8717 79.6131 89.9504 79.5855 90.035 79.5694C90.1197 79.5532 90.2085 79.5488 90.2958 79.5564C90.3832 79.564 90.4673 79.5834 90.5427 79.6135C93.1055 80.4624 95.8989 81.3112 98.7051 82.1601C98.875 82.1837 99.0238 82.2511 99.1187 82.3474C99.2136 82.4437 99.2469 82.5611 99.2112 82.6736C99.1756 82.7862 99.0739 82.8848 98.9285 82.9476C98.7831 83.0105 98.6059 83.0326 98.436 83.0089V82.958ZM168.297 82.2195C168.16 82.2193 168.027 82.1927 167.912 82.1431C167.776 82.0756 167.686 81.975 167.662 81.8636C167.638 81.7522 167.682 81.639 167.784 81.5489C169.46 80.0255 171.519 78.7047 173.871 77.6442L174.537 77.3641C174.609 77.3345 174.688 77.3146 174.771 77.3055C174.854 77.2963 174.939 77.2981 175.022 77.3107C175.104 77.3233 175.181 77.3465 175.25 77.379C175.318 77.4114 175.377 77.4525 175.421 77.4999C175.466 77.5473 175.496 77.6 175.51 77.6551C175.523 77.7102 175.521 77.7665 175.502 77.8209C175.483 77.8753 175.448 77.9266 175.399 77.9721C175.35 78.0175 175.288 78.0561 175.216 78.0856L174.588 78.3488C172.357 79.3546 170.402 80.6064 168.809 82.0497C168.748 82.0977 168.671 82.1363 168.585 82.1627C168.499 82.1891 168.405 82.2027 168.31 82.2025L168.297 82.2195ZM227.073 80.5218C226.966 80.5211 226.861 80.5037 226.766 80.4709C225.69 80.0889 224.639 79.7324 223.639 79.4013C222.012 78.875 220.333 78.3827 218.642 77.9413C218.558 77.9243 218.48 77.896 218.412 77.8581C218.345 77.8202 218.291 77.7736 218.252 77.7211C218.214 77.6686 218.192 77.6113 218.188 77.553C218.184 77.4947 218.199 77.4365 218.231 77.382C218.263 77.3276 218.311 77.278 218.373 77.2366C218.435 77.1951 218.509 77.1625 218.591 77.1409C218.673 77.1193 218.761 77.1091 218.849 77.111C218.937 77.1129 219.024 77.1268 219.103 77.1519C220.833 77.5933 222.55 78.1026 224.229 78.6458C225.228 78.9769 226.305 79.3334 227.394 79.7239C227.541 79.7793 227.65 79.8705 227.698 79.9782C227.746 80.0859 227.729 80.2017 227.65 80.3011C227.592 80.3655 227.51 80.4185 227.41 80.4543C227.311 80.4902 227.199 80.5076 227.086 80.5048L227.073 80.5218ZM82.2778 77.5084C82.1646 77.5099 82.0532 77.4892 81.9575 77.449C79.2794 76.4219 76.6782 75.3523 74.2692 74.2573C74.1449 74.191 74.0625 74.0963 74.038 73.9918C74.0136 73.8873 74.0489 73.7805 74.1371 73.6923C74.2252 73.6042 74.3599 73.541 74.5147 73.5152C74.6695 73.4894 74.8333 73.5028 74.974 73.5527C77.4086 74.6308 79.9842 75.7003 82.6623 76.719C82.7825 76.7662 82.8761 76.8383 82.9288 76.9241C82.9815 77.0099 82.9904 77.1047 82.9541 77.1942C82.9178 77.2836 82.8383 77.3627 82.7278 77.4195C82.6172 77.4762 82.4818 77.5074 82.3419 77.5084H82.2778ZM210.223 76.1757H210.07C207.155 75.7179 204.197 75.3946 201.215 75.208C201.047 75.1973 200.893 75.1431 200.785 75.0573C200.677 74.9715 200.624 74.8609 200.639 74.7496C200.658 74.6377 200.742 74.5353 200.874 74.4639C201.006 74.3926 201.174 74.3581 201.343 74.3677C204.364 74.5573 207.361 74.8863 210.313 75.3523C210.483 75.3647 210.638 75.4213 210.745 75.5096C210.852 75.598 210.902 75.7109 210.883 75.8234C210.865 75.936 210.779 76.039 210.646 76.1099C210.512 76.1807 210.342 76.2135 210.172 76.2012L210.223 76.1757ZM183.25 75.9041C183.105 75.903 182.964 75.8699 182.851 75.8099C182.737 75.7499 182.657 75.6666 182.622 75.573C182.584 75.4639 182.612 75.349 182.701 75.2536C182.79 75.1582 182.932 75.0899 183.097 75.0637C185.347 74.7112 187.634 74.47 189.939 74.3422C190.682 74.3422 191.438 74.2658 192.182 74.2403C192.266 74.2344 192.352 74.2403 192.434 74.2576C192.515 74.2749 192.59 74.3032 192.654 74.3407C192.718 74.3782 192.769 74.4242 192.805 74.4756C192.84 74.527 192.859 74.5827 192.861 74.6393C192.868 74.7505 192.809 74.859 192.696 74.9416C192.583 75.0242 192.426 75.0741 192.258 75.0807C191.515 75.0807 190.785 75.1486 190.054 75.191C187.815 75.314 185.592 75.5466 183.404 75.8871L183.25 75.9041ZM67.2473 70.811C67.1043 70.8128 66.9645 70.783 66.8501 70.7261C64.4154 69.4613 62.0834 68.1371 59.9178 66.8044C59.8578 66.7649 59.8101 66.718 59.7776 66.6663C59.745 66.6146 59.7283 66.5591 59.7283 66.5031C59.7283 66.447 59.745 66.3916 59.7776 66.3398C59.8101 66.2881 59.8578 66.2412 59.9178 66.2017C60.0398 66.1234 60.2029 66.0796 60.3727 66.0796C60.5425 66.0796 60.7057 66.1234 60.8276 66.2017C62.9675 67.5259 65.274 68.8332 67.683 70.081C67.815 70.151 67.8999 70.2528 67.9191 70.3641C67.9383 70.4754 67.8902 70.5872 67.7855 70.6752C67.7169 70.7193 67.6337 70.7523 67.5425 70.7715C67.4513 70.7906 67.3546 70.7954 67.2601 70.7855L67.2473 70.811ZM54.0235 62.6196C53.9317 62.619 53.8411 62.6059 53.7573 62.5811C53.6735 62.5563 53.5984 62.5203 53.5366 62.4753C51.5232 60.9588 49.6449 59.366 47.9113 57.7047C47.8153 57.6119 47.7777 57.4979 47.8064 57.387C47.8351 57.2761 47.9279 57.1769 48.0651 57.1105C48.2077 57.0499 48.3799 57.0276 48.5465 57.0481C48.7132 57.0686 48.8618 57.1304 48.962 57.2209C50.6918 58.8493 52.5659 60.4083 54.5745 61.8896C54.6919 61.9689 54.7576 62.0756 54.7576 62.1867C54.7576 62.2978 54.6919 62.4044 54.5745 62.4838C54.5034 62.5281 54.418 62.5611 54.3247 62.5802C54.2314 62.5994 54.1328 62.6041 54.0363 62.5941L54.0235 62.6196ZM43.7725 52.7475C43.6543 52.747 43.5386 52.7245 43.4389 52.6824C43.3391 52.6404 43.2593 52.5806 43.2087 52.5098C41.8038 50.7153 40.5921 48.8574 39.5824 46.9498C39.5288 46.8428 39.5403 46.7262 39.6145 46.6248C39.6887 46.5233 39.8196 46.445 39.9796 46.4066C40.1394 46.3714 40.3136 46.3792 40.4647 46.4285C40.6158 46.4777 40.7315 46.5644 40.7869 46.6697C41.7776 48.5427 42.968 50.3667 44.3491 52.1278C44.4251 52.2281 44.4381 52.3441 44.3853 52.4507C44.3324 52.5573 44.2181 52.6457 44.0672 52.6965C43.9739 52.7216 43.8724 52.7303 43.7725 52.722V52.7475ZM37.9166 41.4068C37.7645 41.4079 37.617 41.3723 37.5015 41.3067C37.386 41.2412 37.3104 41.1501 37.2887 41.0503C37.1606 40.6004 37.0581 40.1505 36.9555 39.6922C36.6424 38.1958 36.484 36.687 36.4814 35.1763V34.998C36.4814 34.8855 36.5489 34.7775 36.6691 34.6979C36.7892 34.6183 36.9522 34.5736 37.1221 34.5736C37.2921 34.5736 37.455 34.6183 37.5752 34.6979C37.6953 34.7775 37.7628 34.8855 37.7628 34.998V35.1678C37.761 36.6388 37.9151 38.1081 38.2241 39.5648C38.3266 40.0147 38.4291 40.4561 38.5445 40.8975C38.5744 41.0078 38.5373 41.1214 38.4413 41.2137C38.3453 41.3059 38.1981 41.3692 38.0319 41.3899L37.9166 41.4068ZM37.9807 29.4551H37.8653C37.6991 29.4344 37.5519 29.3711 37.4559 29.2789C37.3599 29.1866 37.3228 29.073 37.3528 28.9627C37.9099 26.9687 38.72 25.0094 39.7746 23.1057C39.8378 23.0006 39.9594 22.9157 40.1143 22.8683C40.2693 22.8209 40.4458 22.8147 40.6075 22.851C40.7648 22.891 40.8921 22.9704 40.9616 23.0721C41.0312 23.1738 41.0374 23.2895 40.9791 23.3943C39.9432 25.2529 39.1501 27.167 38.6085 29.1155C38.5802 29.2199 38.4929 29.3131 38.3643 29.3762C38.2357 29.4394 38.0755 29.4675 37.9166 29.4551H37.9807ZM44.2338 18.2418C44.1216 18.238 44.0122 18.2177 43.9134 18.1823C43.7671 18.124 43.661 18.0301 43.6179 17.9206C43.5748 17.8112 43.5981 17.6949 43.6828 17.5966C45.2235 15.8429 47.0035 14.1864 49.0005 12.6479C49.1166 12.5785 49.2669 12.5396 49.4233 12.5386C49.5796 12.5376 49.7311 12.5744 49.8492 12.6423C49.9674 12.7101 50.044 12.8042 50.0647 12.9069C50.0854 13.0095 50.0487 13.1136 49.9615 13.1996C48.0416 14.7064 46.3264 16.3227 44.836 18.0295C44.7733 18.1032 44.6788 18.1627 44.5646 18.2005C44.4505 18.2383 44.3219 18.2527 44.1953 18.2418H44.2338ZM56.0353 9.20153C55.9029 9.20102 55.774 9.17337 55.6663 9.12237C55.5586 9.07137 55.4775 8.99952 55.4339 8.91671C55.3904 8.83391 55.3866 8.74419 55.4232 8.65991C55.4597 8.57563 55.5348 8.50092 55.638 8.44604C58.0593 7.20072 60.6554 6.11205 63.3904 5.19496C63.5433 5.1443 63.7203 5.13597 63.8825 5.17179C64.0447 5.2076 64.1788 5.28464 64.2553 5.38595C64.3317 5.48726 64.3443 5.60454 64.2903 5.71199C64.2362 5.81944 64.1199 5.90827 63.967 5.95892C61.3069 6.85191 58.7799 7.90916 56.4197 9.11664C56.2989 9.17793 56.1486 9.2081 55.9968 9.20153H56.0353ZM134.737 3.91319C131.686 3.86878 128.642 3.69013 125.627 3.37842C125.457 3.36266 125.303 3.30283 125.2 3.21209C125.097 3.12135 125.052 3.00714 125.076 2.89458C125.1 2.78201 125.19 2.68032 125.327 2.61187C125.464 2.54341 125.636 2.51381 125.806 2.52957C128.775 2.83879 131.771 3.01461 134.776 3.05585C134.946 3.05585 135.109 3.10057 135.229 3.18017C135.349 3.25976 135.417 3.36771 135.417 3.48028C135.417 3.59284 135.349 3.7008 135.229 3.78039C135.109 3.85999 134.946 3.9047 134.776 3.9047L134.737 3.91319ZM72.0268 3.69249C71.9427 3.70141 71.8567 3.69926 71.7739 3.68617C71.691 3.67308 71.6128 3.64931 71.5438 3.6162C71.4748 3.5831 71.4163 3.54131 71.3716 3.49323C71.327 3.44514 71.2971 3.39171 71.2836 3.33598C71.2702 3.28024 71.2734 3.22329 71.2932 3.16839C71.313 3.11348 71.3488 3.06169 71.3988 3.01597C71.4488 2.97026 71.5119 2.93151 71.5844 2.90194C71.657 2.87237 71.7377 2.85256 71.8218 2.84364C74.7213 2.22014 77.6735 1.70996 80.6633 1.31572C80.7467 1.30466 80.8325 1.30469 80.9158 1.31583C80.9992 1.32696 81.0783 1.34897 81.1487 1.38057C81.2191 1.41217 81.2792 1.45274 81.3257 1.4999C81.3722 1.54705 81.404 1.59986 81.4193 1.65525C81.4379 1.70944 81.4396 1.76558 81.4242 1.82021C81.4089 1.87484 81.3768 1.9268 81.33 1.97292C81.2831 2.01903 81.2226 2.05832 81.152 2.08836C81.0815 2.11839 81.0024 2.13855 80.9196 2.14759C77.9783 2.5374 75.0733 3.03905 72.219 3.65005L72.0268 3.69249ZM116.773 2.3598H116.657C113.902 2.02026 110.789 1.63828 107.688 1.34967C107.522 1.33286 107.373 1.27366 107.272 1.18479C107.171 1.09591 107.127 0.984443 107.149 0.874313C107.159 0.818705 107.185 0.764923 107.227 0.71619C107.268 0.667458 107.324 0.62478 107.391 0.590701C107.458 0.556622 107.535 0.531848 107.616 0.517863C107.698 0.503878 107.783 0.500967 107.867 0.509308C110.942 0.797917 114.069 1.18839 116.837 1.52793C117.003 1.54857 117.15 1.6119 117.246 1.70413C117.342 1.79636 117.379 1.90999 117.349 2.02026C117.327 2.11473 117.259 2.20177 117.155 2.26779C117.05 2.33382 116.916 2.37512 116.773 2.38526V2.3598ZM89.7611 1.26478C89.5912 1.27154 89.4242 1.2333 89.2968 1.15848C89.1694 1.08366 89.0921 0.978394 89.082 0.865829C89.0718 0.753265 89.1295 0.642626 89.2424 0.558255C89.3554 0.473884 89.5143 0.422688 89.6842 0.415934C91.3116 0.297095 93.0542 0.186747 94.8097 0.0933739C95.9373 0.0339545 97.129 0 98.3463 0H98.7692C98.8533 0.00110364 98.9363 0.0131796 99.0134 0.0355349C99.0905 0.0578903 99.1602 0.0900863 99.2185 0.130288C99.2768 0.17049 99.3226 0.217912 99.3532 0.269837C99.3839 0.321763 99.3988 0.377176 99.3971 0.432915C99.3876 0.542639 99.3167 0.646079 99.1982 0.723003C99.0797 0.799928 98.9222 0.844801 98.7564 0.848849H98.3463C97.1675 0.848849 96.0142 0.848848 94.8994 0.933732C93.1311 1.02711 91.4141 1.13746 89.7739 1.26478H89.7611Z" fill="#F98731"/>
<path d="M86.3746 150C84.8498 149.958 83.3377 149.881 81.877 149.788C81.7932 149.784 81.7116 149.768 81.637 149.743C81.5624 149.717 81.4962 149.682 81.4424 149.639C81.3886 149.597 81.3484 149.547 81.324 149.494C81.2996 149.441 81.2915 149.385 81.3003 149.329C81.3049 149.273 81.3269 149.219 81.3648 149.169C81.4027 149.119 81.4558 149.074 81.5208 149.039C81.5857 149.003 81.6611 148.976 81.7422 148.96C81.8233 148.945 81.9085 148.94 81.9923 148.947C83.4403 149.041 84.9267 149.109 86.4387 149.151C86.6086 149.151 86.7715 149.196 86.8917 149.275C87.0119 149.355 87.0794 149.463 87.0794 149.576C87.0794 149.688 87.0119 149.796 86.8917 149.876C86.7715 149.955 86.6086 150 86.4387 150H86.3746Z" fill="#F98731"/>
<g opacity="0.6">
<path opacity="0.6" d="M143.729 3.34431C143.586 3.34283 143.447 3.30938 143.335 3.24933C143.224 3.18929 143.146 3.10614 143.114 3.01325C143.093 2.95915 143.089 2.90282 143.102 2.84762C143.115 2.79242 143.144 2.73947 143.188 2.69194C143.232 2.64442 143.291 2.60328 143.359 2.57098C143.428 2.53868 143.506 2.51588 143.588 2.50394C145.01 2.28884 146.406 2.00513 147.766 1.65509C147.844 1.63447 147.928 1.62426 148.012 1.62504C148.096 1.62583 148.179 1.63759 148.256 1.65966C148.334 1.68173 148.404 1.71368 148.462 1.75367C148.521 1.79367 148.567 1.84094 148.599 1.89277C148.63 1.94461 148.645 1.99999 148.644 2.05577C148.643 2.11156 148.625 2.16664 148.592 2.21787C148.558 2.26911 148.51 2.3155 148.45 2.35439C148.389 2.39327 148.318 2.4239 148.24 2.44452C146.824 2.81957 145.368 3.12319 143.883 3.35279L143.729 3.34431Z" fill="white"/>
<path opacity="0.6" d="M95.5785 149.983C95.4139 149.981 95.2565 149.938 95.1377 149.863C95.0189 149.787 94.9475 149.685 94.9379 149.576C94.9344 149.52 94.9476 149.464 94.9767 149.412C95.0057 149.36 95.0501 149.311 95.1072 149.27C95.1643 149.229 95.2331 149.196 95.3096 149.173C95.3861 149.15 95.4688 149.136 95.5529 149.134C98.5129 149.032 101.537 148.854 104.523 148.591C104.69 148.579 104.858 148.61 104.992 148.678C105.126 148.746 105.215 148.846 105.24 148.956C105.253 149.011 105.248 149.068 105.227 149.122C105.206 149.176 105.169 149.227 105.117 149.271C105.066 149.316 105.001 149.353 104.928 149.38C104.854 149.408 104.773 149.425 104.689 149.431C101.665 149.703 98.6026 149.881 95.6042 149.975L95.5785 149.983ZM113.518 148.413C113.348 148.425 113.178 148.392 113.044 148.321C112.911 148.251 112.825 148.148 112.807 148.035C112.788 147.922 112.838 147.81 112.944 147.721C113.051 147.633 113.207 147.576 113.377 147.564C116.388 147.131 119.322 146.622 122.09 146.044C122.172 146.022 122.261 146.011 122.349 146.012C122.438 146.014 122.526 146.027 122.606 146.052C122.687 146.077 122.758 146.112 122.817 146.157C122.875 146.201 122.92 146.253 122.946 146.309C122.973 146.365 122.982 146.424 122.972 146.483C122.963 146.541 122.935 146.598 122.89 146.649C122.846 146.699 122.786 146.744 122.715 146.779C122.643 146.813 122.561 146.838 122.475 146.851C119.668 147.437 116.708 147.954 113.646 148.396L113.518 148.413ZM130.752 144.746C130.631 144.746 130.511 144.723 130.409 144.679C130.306 144.636 130.225 144.573 130.176 144.5C130.139 144.449 130.118 144.394 130.113 144.338C130.109 144.282 130.121 144.226 130.15 144.173C130.179 144.12 130.223 144.071 130.28 144.03C130.337 143.988 130.406 143.954 130.483 143.931C132.655 143.288 134.75 142.536 136.749 141.681L138.274 141.002C138.415 140.941 138.587 140.919 138.753 140.941C138.919 140.963 139.064 141.028 139.158 141.121C139.206 141.167 139.24 141.218 139.258 141.272C139.276 141.327 139.277 141.383 139.261 141.437C139.246 141.492 139.214 141.544 139.168 141.59C139.121 141.636 139.061 141.676 138.992 141.707L137.454 142.386C135.411 143.266 133.269 144.04 131.047 144.703C130.967 144.728 130.88 144.743 130.791 144.746H130.752ZM145.834 138.133C145.742 138.133 145.652 138.12 145.568 138.095C145.484 138.07 145.409 138.034 145.347 137.989C145.237 137.903 145.182 137.791 145.194 137.679C145.206 137.566 145.284 137.461 145.411 137.386C147.681 136.089 149.786 134.669 151.703 133.142C151.814 133.056 151.972 133.003 152.142 132.994C152.312 132.984 152.481 133.019 152.613 133.091C152.678 133.126 152.731 133.17 152.77 133.219C152.809 133.268 152.833 133.322 152.841 133.377C152.848 133.433 152.838 133.489 152.812 133.541C152.786 133.594 152.744 133.643 152.69 133.685C150.732 135.237 148.589 136.681 146.283 138.006C146.175 138.081 146.028 138.126 145.873 138.133H145.834ZM157.226 128.881C157.122 128.881 157.021 128.864 156.931 128.83C156.78 128.779 156.666 128.691 156.613 128.584C156.56 128.477 156.573 128.361 156.649 128.261C157.068 127.729 157.452 127.186 157.802 126.631C158.594 125.364 159.236 124.059 159.724 122.727C159.744 122.671 159.781 122.618 159.832 122.572C159.883 122.526 159.947 122.486 160.021 122.456C160.094 122.426 160.176 122.406 160.262 122.397C160.347 122.388 160.435 122.391 160.519 122.404C160.603 122.417 160.682 122.442 160.752 122.475C160.822 122.509 160.882 122.551 160.927 122.6C160.972 122.649 161.002 122.704 161.016 122.76C161.029 122.817 161.026 122.875 161.006 122.93C160.506 124.307 159.842 125.655 159.02 126.962C158.661 127.531 158.263 128.091 157.828 128.66C157.774 128.728 157.692 128.784 157.593 128.823C157.493 128.862 157.38 128.882 157.264 128.881H157.226ZM161.672 117.319C161.587 117.316 161.503 117.302 161.426 117.277C161.35 117.252 161.281 117.217 161.225 117.174C161.169 117.132 161.126 117.082 161.1 117.028C161.073 116.974 161.063 116.917 161.07 116.861C161.185 115.707 161.249 114.484 161.249 113.135C161.249 112.388 161.249 111.649 161.249 110.902C161.246 110.846 161.259 110.789 161.289 110.736C161.319 110.684 161.365 110.635 161.423 110.594C161.481 110.553 161.552 110.52 161.63 110.497C161.708 110.474 161.792 110.462 161.877 110.461C161.962 110.458 162.046 110.467 162.125 110.487C162.204 110.507 162.277 110.538 162.338 110.576C162.399 110.615 162.447 110.662 162.48 110.713C162.514 110.765 162.531 110.821 162.53 110.877C162.53 111.632 162.53 112.379 162.53 113.135C162.53 114.51 162.466 115.749 162.351 116.92C162.341 117.029 162.27 117.13 162.15 117.204C162.031 117.278 161.874 117.32 161.71 117.319H161.672ZM161.429 105.308C161.265 105.308 161.108 105.267 160.989 105.193C160.869 105.119 160.798 105.017 160.788 104.909C160.673 103.212 160.557 101.327 160.557 99.4766V98.8739C160.551 98.8176 160.564 98.761 160.594 98.7082C160.624 98.6554 160.672 98.6076 160.733 98.568C160.794 98.5285 160.867 98.4981 160.947 98.4791C161.027 98.4602 161.113 98.4529 161.198 98.458C161.368 98.458 161.531 98.5027 161.651 98.5823C161.771 98.6619 161.839 98.7698 161.839 98.8824V99.4766C161.839 101.31 161.954 103.152 162.069 104.867C162.073 104.923 162.059 104.978 162.03 105.031C162.001 105.083 161.957 105.131 161.9 105.172C161.843 105.213 161.774 105.246 161.697 105.269C161.621 105.293 161.538 105.306 161.454 105.308H161.429ZM216.207 100.079C215.041 100.079 213.901 100.079 212.812 100.028C212.728 100.026 212.645 100.013 212.568 99.9896C212.492 99.9663 212.423 99.9331 212.366 99.8921C212.309 99.8511 212.265 99.8031 212.235 99.7507C212.206 99.6983 212.193 99.6427 212.197 99.587C212.2 99.5312 212.22 99.4764 212.255 99.4258C212.29 99.3751 212.34 99.3296 212.402 99.2917C212.464 99.2539 212.537 99.2245 212.616 99.2052C212.695 99.186 212.779 99.1772 212.863 99.1795C213.939 99.1795 215.067 99.2304 216.207 99.2304C218.086 99.2367 219.964 99.1744 221.833 99.0437C222.003 99.0313 222.173 99.0641 222.306 99.135C222.44 99.2058 222.525 99.3089 222.544 99.4214C222.562 99.534 222.513 99.6469 222.406 99.7352C222.299 99.8236 222.144 99.8802 221.974 99.8925C220.071 100.022 218.159 100.085 216.246 100.079H216.207ZM203.791 99.6464C200.792 99.4936 197.743 99.3153 194.744 99.1116C194.66 99.1063 194.578 99.09 194.503 99.0636C194.429 99.0372 194.363 99.0012 194.309 98.9578C194.255 98.9144 194.215 98.8644 194.191 98.8107C194.167 98.7569 194.159 98.7005 194.168 98.6447C194.176 98.5889 194.2 98.5346 194.24 98.4851C194.28 98.4357 194.334 98.3919 194.4 98.3564C194.465 98.3208 194.541 98.2943 194.622 98.2782C194.703 98.2621 194.788 98.2569 194.872 98.2627C197.858 98.4665 200.895 98.6532 203.842 98.806C204.012 98.806 204.175 98.8507 204.295 98.9303C204.415 99.0099 204.483 99.1179 204.483 99.2304C204.483 99.343 204.415 99.451 204.295 99.5305C204.175 99.6101 204.012 99.6549 203.842 99.6549L203.791 99.6464ZM230.7 98.4325C230.577 98.4315 230.457 98.408 230.353 98.3645C230.249 98.3211 230.165 98.2594 230.11 98.1863C230.041 98.0839 230.036 97.9674 230.096 97.8624C230.156 97.7574 230.276 97.6724 230.431 97.6261C233.117 96.8719 235.393 95.5926 236.953 93.9591C236.993 93.9066 237.048 93.8601 237.117 93.8226C237.185 93.7851 237.264 93.7574 237.349 93.7412C237.435 93.7251 237.524 93.7208 237.612 93.7287C237.7 93.7366 237.784 93.7566 237.86 93.7872C237.936 93.8179 238.001 93.8586 238.051 93.9068C238.102 93.9551 238.137 94.0097 238.154 94.0674C238.171 94.125 238.17 94.1844 238.151 94.2417C238.132 94.2991 238.095 94.3531 238.042 94.4005C236.355 96.1801 233.887 97.5752 230.969 98.3986C230.884 98.4221 230.792 98.4337 230.7 98.4325ZM185.787 98.4325H185.711C182.725 98.1779 179.688 97.8893 176.741 97.5837C176.658 97.5754 176.578 97.5563 176.505 97.5275C176.433 97.4986 176.37 97.4607 176.32 97.4157C176.27 97.3708 176.234 97.3197 176.214 97.2655C176.194 97.2113 176.19 97.155 176.203 97.0998C176.231 96.9893 176.323 96.8904 176.459 96.8239C176.596 96.7574 176.765 96.7285 176.933 96.7433C179.906 97.0489 182.917 97.3375 185.903 97.5922C186.073 97.5989 186.232 97.6501 186.345 97.7345C186.458 97.8188 186.515 97.9295 186.505 98.042C186.495 98.1546 186.418 98.2599 186.29 98.3347C186.163 98.4095 185.996 98.4478 185.826 98.441L185.787 98.4325ZM167.848 96.5905H167.733C164.773 96.234 161.774 95.8435 158.827 95.4361C158.657 95.4136 158.508 95.3473 158.412 95.2517C158.316 95.1562 158.281 95.0393 158.315 94.9268C158.349 94.8142 158.449 94.7152 158.593 94.6515C158.737 94.5878 158.914 94.5647 159.084 94.5872C162.031 94.9947 165.016 95.3851 167.964 95.7417C168.047 95.7509 168.127 95.771 168.199 95.8008C168.27 95.8306 168.332 95.8695 168.381 95.9153C168.43 95.9611 168.465 96.0128 168.483 96.0675C168.502 96.1222 168.504 96.1788 168.489 96.234C168.457 96.3291 168.378 96.4144 168.264 96.476C168.15 96.5377 168.008 96.572 167.861 96.5735L167.848 96.5905ZM150.101 94.1289H149.947C147.026 93.6705 144.053 93.1781 141.144 92.6688C141.06 92.6549 140.981 92.6301 140.911 92.5959C140.842 92.5617 140.783 92.5188 140.738 92.4695C140.694 92.4202 140.664 92.3656 140.651 92.3088C140.639 92.252 140.643 92.194 140.664 92.1383C140.685 92.0826 140.722 92.0301 140.774 91.984C140.826 91.9378 140.89 91.8988 140.965 91.8693C141.039 91.8397 141.121 91.8201 141.207 91.8117C141.293 91.8032 141.381 91.806 141.465 91.82C144.373 92.3293 147.321 92.8216 150.242 93.2715C150.408 93.2997 150.552 93.3693 150.642 93.4657C150.733 93.5622 150.764 93.6781 150.729 93.7893C150.695 93.8806 150.616 93.9619 150.505 94.0202C150.393 94.0786 150.256 94.1109 150.114 94.1119L150.101 94.1289ZM161.864 93.3309H161.762C161.595 93.3121 161.446 93.2512 161.345 93.161C161.245 93.0707 161.201 92.9582 161.224 92.8471C161.672 90.8288 162.432 88.8463 163.492 86.9306C163.549 86.8248 163.668 86.7386 163.822 86.6908C163.976 86.6431 164.152 86.6377 164.312 86.676C164.471 86.7143 164.601 86.793 164.674 86.8949C164.746 86.9967 164.754 87.1134 164.696 87.2192C163.675 89.0775 162.945 91.0003 162.518 92.9574C162.493 93.0579 162.415 93.1491 162.297 93.2146C162.18 93.28 162.031 93.3153 161.877 93.314L161.864 93.3309ZM132.559 91.0645C132.5 91.0723 132.439 91.0723 132.38 91.0645C129.497 90.5128 126.562 89.9186 123.692 89.3074C123.611 89.2911 123.536 89.2641 123.471 89.2281C123.406 89.1921 123.353 89.1478 123.315 89.0979C123.277 89.0479 123.254 88.9934 123.248 88.9375C123.243 88.8816 123.254 88.8255 123.282 88.7726C123.335 88.6657 123.449 88.5771 123.601 88.5262C123.752 88.4752 123.928 88.4662 124.089 88.501C126.947 89.1037 129.855 89.6979 132.738 90.2496C132.902 90.2811 133.039 90.3543 133.121 90.453C133.203 90.5517 133.222 90.6678 133.174 90.7759C133.129 90.857 133.047 90.9268 132.939 90.9755C132.831 91.0242 132.702 91.0494 132.572 91.0475L132.559 91.0645ZM239.311 88.883C239.162 88.881 239.018 88.8454 238.904 88.7822C238.79 88.7189 238.712 88.6317 238.683 88.5349C237.991 86.6636 236.399 84.9922 234.147 83.7729C234.087 83.7342 234.04 83.6879 234.007 83.6369C233.975 83.5859 233.958 83.5311 233.958 83.4758C233.958 83.4205 233.975 83.3657 234.007 83.3147C234.04 83.2636 234.087 83.2174 234.147 83.1787C234.206 83.1389 234.277 83.1073 234.355 83.0858C234.433 83.0643 234.517 83.0532 234.602 83.0532C234.686 83.0532 234.77 83.0643 234.848 83.0858C234.926 83.1073 234.997 83.1389 235.056 83.1787C237.52 84.5174 239.253 86.3542 239.99 88.4076C240.007 88.4622 240.007 88.5185 239.991 88.5733C239.975 88.628 239.943 88.6801 239.896 88.7266C239.85 88.7731 239.79 88.8131 239.721 88.8443C239.651 88.8755 239.572 88.8973 239.49 88.9084L239.311 88.883ZM115.299 87.3975C115.227 87.4063 115.153 87.4063 115.081 87.3975C112.16 86.7099 109.302 85.9969 106.56 85.2839C106.404 85.2405 106.279 85.1588 106.213 85.0559C106.146 84.953 106.142 84.837 106.201 84.7321C106.232 84.6802 106.278 84.6329 106.337 84.5929C106.396 84.5529 106.466 84.5209 106.543 84.4988C106.621 84.4768 106.704 84.465 106.788 84.4642C106.872 84.4635 106.956 84.4737 107.034 84.4944C109.751 85.2074 112.608 85.912 115.504 86.5996C115.663 86.6362 115.794 86.7129 115.868 86.813C115.942 86.9131 115.954 87.0285 115.901 87.1343C115.849 87.2087 115.766 87.2715 115.661 87.3151C115.557 87.3588 115.435 87.3815 115.312 87.3805L115.299 87.3975ZM98.436 82.958C98.3516 82.9705 98.2641 82.9705 98.1797 82.958C95.3607 82.1091 92.5929 81.2603 89.9661 80.369C89.8848 80.3466 89.8113 80.3133 89.7503 80.2712C89.6893 80.2291 89.642 80.1791 89.6115 80.1243C89.5809 80.0696 89.5677 80.0113 89.5728 79.953C89.5778 79.8947 89.6009 79.8378 89.6406 79.7857C89.6804 79.7336 89.736 79.6875 89.8038 79.6503C89.8717 79.6131 89.9504 79.5855 90.035 79.5694C90.1197 79.5532 90.2085 79.5488 90.2958 79.5564C90.3832 79.564 90.4673 79.5834 90.5427 79.6135C93.1055 80.4624 95.8989 81.3112 98.7051 82.1601C98.875 82.1837 99.0238 82.2511 99.1187 82.3474C99.2136 82.4437 99.2469 82.5611 99.2112 82.6736C99.1756 82.7862 99.0739 82.8848 98.9285 82.9476C98.7831 83.0105 98.6059 83.0326 98.436 83.0089V82.958ZM168.297 82.2195C168.16 82.2193 168.027 82.1927 167.912 82.1431C167.776 82.0756 167.686 81.975 167.662 81.8636C167.638 81.7522 167.682 81.639 167.784 81.5489C169.46 80.0255 171.519 78.7047 173.871 77.6442L174.537 77.3641C174.609 77.3345 174.688 77.3146 174.771 77.3055C174.854 77.2963 174.939 77.2981 175.022 77.3107C175.104 77.3233 175.181 77.3465 175.25 77.379C175.318 77.4114 175.377 77.4525 175.421 77.4999C175.466 77.5473 175.496 77.6 175.51 77.6551C175.523 77.7102 175.521 77.7665 175.502 77.8209C175.483 77.8753 175.448 77.9266 175.399 77.9721C175.35 78.0175 175.288 78.0561 175.216 78.0856L174.588 78.3488C172.357 79.3546 170.402 80.6064 168.809 82.0497C168.748 82.0977 168.671 82.1363 168.585 82.1627C168.499 82.1891 168.405 82.2027 168.31 82.2025L168.297 82.2195ZM227.073 80.5218C226.966 80.5211 226.861 80.5037 226.766 80.4709C225.69 80.0889 224.639 79.7324 223.639 79.4013C222.012 78.875 220.333 78.3827 218.642 77.9413C218.558 77.9243 218.48 77.896 218.412 77.8581C218.345 77.8202 218.291 77.7736 218.252 77.7211C218.214 77.6686 218.192 77.6113 218.188 77.553C218.184 77.4947 218.199 77.4365 218.231 77.382C218.263 77.3276 218.311 77.278 218.373 77.2366C218.435 77.1951 218.509 77.1625 218.591 77.1409C218.673 77.1193 218.761 77.1091 218.849 77.111C218.937 77.1129 219.024 77.1268 219.103 77.1519C220.833 77.5933 222.55 78.1026 224.229 78.6458C225.228 78.9769 226.305 79.3334 227.394 79.7239C227.541 79.7793 227.65 79.8705 227.698 79.9782C227.746 80.0859 227.729 80.2017 227.65 80.3011C227.592 80.3655 227.51 80.4185 227.41 80.4543C227.311 80.4902 227.199 80.5076 227.086 80.5048L227.073 80.5218ZM82.2778 77.5084C82.1646 77.5099 82.0532 77.4892 81.9575 77.449C79.2794 76.4219 76.6782 75.3523 74.2692 74.2573C74.1449 74.191 74.0625 74.0963 74.038 73.9918C74.0136 73.8873 74.0489 73.7805 74.1371 73.6923C74.2252 73.6042 74.3599 73.541 74.5147 73.5152C74.6695 73.4894 74.8333 73.5028 74.974 73.5527C77.4086 74.6308 79.9842 75.7003 82.6623 76.719C82.7825 76.7662 82.8761 76.8383 82.9288 76.9241C82.9815 77.0099 82.9904 77.1047 82.9541 77.1942C82.9178 77.2836 82.8383 77.3627 82.7278 77.4195C82.6172 77.4762 82.4818 77.5074 82.3419 77.5084H82.2778ZM210.223 76.1757H210.07C207.155 75.7179 204.197 75.3946 201.215 75.208C201.047 75.1973 200.893 75.1431 200.785 75.0573C200.677 74.9715 200.624 74.8609 200.639 74.7496C200.658 74.6377 200.742 74.5353 200.874 74.4639C201.006 74.3926 201.174 74.3581 201.343 74.3677C204.364 74.5573 207.361 74.8863 210.313 75.3523C210.483 75.3647 210.638 75.4213 210.745 75.5096C210.852 75.598 210.902 75.7109 210.883 75.8234C210.865 75.936 210.779 76.039 210.646 76.1099C210.512 76.1807 210.342 76.2135 210.172 76.2012L210.223 76.1757ZM183.25 75.9041C183.105 75.903 182.964 75.8699 182.851 75.8099C182.737 75.7499 182.657 75.6666 182.622 75.573C182.584 75.4639 182.612 75.349 182.701 75.2536C182.79 75.1582 182.932 75.0899 183.097 75.0637C185.347 74.7112 187.634 74.47 189.939 74.3422C190.682 74.3422 191.438 74.2658 192.182 74.2403C192.266 74.2344 192.352 74.2403 192.434 74.2576C192.515 74.2749 192.59 74.3032 192.654 74.3407C192.718 74.3782 192.769 74.4242 192.805 74.4756C192.84 74.527 192.859 74.5827 192.861 74.6393C192.868 74.7505 192.809 74.859 192.696 74.9416C192.583 75.0242 192.426 75.0741 192.258 75.0807C191.515 75.0807 190.785 75.1486 190.054 75.191C187.815 75.314 185.592 75.5466 183.404 75.8871L183.25 75.9041ZM67.2473 70.811C67.1043 70.8128 66.9645 70.783 66.8501 70.7261C64.4154 69.4613 62.0834 68.1371 59.9178 66.8044C59.8578 66.7649 59.8101 66.718 59.7776 66.6663C59.745 66.6146 59.7283 66.5591 59.7283 66.5031C59.7283 66.447 59.745 66.3916 59.7776 66.3398C59.8101 66.2881 59.8578 66.2412 59.9178 66.2017C60.0398 66.1234 60.2029 66.0796 60.3727 66.0796C60.5425 66.0796 60.7057 66.1234 60.8276 66.2017C62.9675 67.5259 65.274 68.8332 67.683 70.081C67.815 70.151 67.8999 70.2528 67.9191 70.3641C67.9383 70.4754 67.8902 70.5872 67.7855 70.6752C67.7169 70.7193 67.6337 70.7523 67.5425 70.7715C67.4513 70.7906 67.3546 70.7954 67.2601 70.7855L67.2473 70.811ZM54.0235 62.6196C53.9317 62.619 53.8411 62.6059 53.7573 62.5811C53.6735 62.5563 53.5984 62.5203 53.5366 62.4753C51.5232 60.9588 49.6449 59.366 47.9113 57.7047C47.8153 57.6119 47.7777 57.4979 47.8064 57.387C47.8351 57.2761 47.9279 57.1769 48.0651 57.1105C48.2077 57.0499 48.3799 57.0276 48.5465 57.0481C48.7132 57.0686 48.8618 57.1304 48.962 57.2209C50.6918 58.8493 52.5659 60.4083 54.5745 61.8896C54.6919 61.9689 54.7576 62.0756 54.7576 62.1867C54.7576 62.2978 54.6919 62.4044 54.5745 62.4838C54.5034 62.5281 54.418 62.5611 54.3247 62.5802C54.2314 62.5994 54.1328 62.6041 54.0363 62.5941L54.0235 62.6196ZM43.7725 52.7475C43.6543 52.747 43.5386 52.7245 43.4389 52.6824C43.3391 52.6404 43.2593 52.5806 43.2087 52.5098C41.8038 50.7153 40.5921 48.8574 39.5824 46.9498C39.5288 46.8428 39.5403 46.7262 39.6145 46.6248C39.6887 46.5233 39.8196 46.445 39.9796 46.4066C40.1394 46.3714 40.3136 46.3792 40.4647 46.4285C40.6158 46.4777 40.7315 46.5644 40.7869 46.6697C41.7776 48.5427 42.968 50.3667 44.3491 52.1278C44.4251 52.2281 44.4381 52.3441 44.3853 52.4507C44.3324 52.5573 44.2181 52.6457 44.0672 52.6965C43.9739 52.7216 43.8724 52.7303 43.7725 52.722V52.7475ZM37.9166 41.4068C37.7645 41.4079 37.617 41.3723 37.5015 41.3067C37.386 41.2412 37.3104 41.1501 37.2887 41.0503C37.1606 40.6004 37.0581 40.1505 36.9555 39.6922C36.6424 38.1958 36.484 36.687 36.4814 35.1763V34.998C36.4814 34.8855 36.5489 34.7775 36.6691 34.6979C36.7892 34.6183 36.9522 34.5736 37.1221 34.5736C37.2921 34.5736 37.455 34.6183 37.5752 34.6979C37.6953 34.7775 37.7628 34.8855 37.7628 34.998V35.1678C37.761 36.6388 37.9151 38.1081 38.2241 39.5648C38.3266 40.0147 38.4291 40.4561 38.5445 40.8975C38.5744 41.0078 38.5373 41.1214 38.4413 41.2137C38.3453 41.3059 38.1981 41.3692 38.0319 41.3899L37.9166 41.4068ZM37.9807 29.4551H37.8653C37.6991 29.4344 37.5519 29.3711 37.4559 29.2789C37.3599 29.1866 37.3228 29.073 37.3528 28.9627C37.9099 26.9687 38.72 25.0094 39.7746 23.1057C39.8378 23.0006 39.9594 22.9157 40.1143 22.8683C40.2693 22.8209 40.4458 22.8147 40.6075 22.851C40.7648 22.891 40.8921 22.9704 40.9616 23.0721C41.0312 23.1738 41.0374 23.2895 40.9791 23.3943C39.9432 25.2529 39.1501 27.167 38.6085 29.1155C38.5802 29.2199 38.4929 29.3131 38.3643 29.3762C38.2357 29.4394 38.0755 29.4675 37.9166 29.4551H37.9807ZM44.2338 18.2418C44.1216 18.238 44.0122 18.2177 43.9134 18.1823C43.7671 18.124 43.661 18.0301 43.6179 17.9206C43.5748 17.8112 43.5981 17.6949 43.6828 17.5966C45.2235 15.8429 47.0035 14.1864 49.0005 12.6479C49.1166 12.5785 49.2669 12.5396 49.4233 12.5386C49.5796 12.5376 49.7311 12.5744 49.8492 12.6423C49.9674 12.7101 50.044 12.8042 50.0647 12.9069C50.0854 13.0095 50.0487 13.1136 49.9615 13.1996C48.0416 14.7064 46.3264 16.3227 44.836 18.0295C44.7733 18.1032 44.6788 18.1627 44.5646 18.2005C44.4505 18.2383 44.3219 18.2527 44.1953 18.2418H44.2338ZM56.0353 9.20153C55.9029 9.20102 55.774 9.17337 55.6663 9.12237C55.5586 9.07137 55.4775 8.99952 55.4339 8.91671C55.3904 8.83391 55.3866 8.74419 55.4232 8.65991C55.4597 8.57563 55.5348 8.50092 55.638 8.44604C58.0593 7.20072 60.6554 6.11205 63.3904 5.19496C63.5433 5.1443 63.7203 5.13597 63.8825 5.17179C64.0447 5.2076 64.1788 5.28464 64.2553 5.38595C64.3317 5.48726 64.3443 5.60454 64.2903 5.71199C64.2362 5.81944 64.1199 5.90827 63.967 5.95892C61.3069 6.85191 58.7799 7.90916 56.4197 9.11664C56.2989 9.17793 56.1486 9.2081 55.9968 9.20153H56.0353ZM134.737 3.91319C131.686 3.86878 128.642 3.69013 125.627 3.37842C125.457 3.36266 125.303 3.30283 125.2 3.21209C125.097 3.12135 125.052 3.00714 125.076 2.89458C125.1 2.78201 125.19 2.68032 125.327 2.61187C125.464 2.54341 125.636 2.51381 125.806 2.52957C128.775 2.83879 131.771 3.01461 134.776 3.05585C134.946 3.05585 135.109 3.10057 135.229 3.18017C135.349 3.25976 135.417 3.36771 135.417 3.48028C135.417 3.59284 135.349 3.7008 135.229 3.78039C135.109 3.85999 134.946 3.9047 134.776 3.9047L134.737 3.91319ZM72.0268 3.69249C71.9427 3.70141 71.8567 3.69926 71.7739 3.68617C71.691 3.67308 71.6128 3.64931 71.5438 3.6162C71.4748 3.5831 71.4163 3.54131 71.3716 3.49323C71.327 3.44514 71.2971 3.39171 71.2836 3.33598C71.2702 3.28024 71.2734 3.22329 71.2932 3.16839C71.313 3.11348 71.3488 3.06169 71.3988 3.01597C71.4488 2.97026 71.5119 2.93151 71.5844 2.90194C71.657 2.87237 71.7377 2.85256 71.8218 2.84364C74.7213 2.22014 77.6735 1.70996 80.6633 1.31572C80.7467 1.30466 80.8325 1.30469 80.9158 1.31583C80.9992 1.32696 81.0783 1.34897 81.1487 1.38057C81.2191 1.41217 81.2792 1.45274 81.3257 1.4999C81.3722 1.54705 81.404 1.59986 81.4193 1.65525C81.4379 1.70944 81.4396 1.76558 81.4242 1.82021C81.4089 1.87484 81.3768 1.9268 81.33 1.97292C81.2831 2.01903 81.2226 2.05832 81.152 2.08836C81.0815 2.11839 81.0024 2.13855 80.9196 2.14759C77.9783 2.5374 75.0733 3.03905 72.219 3.65005L72.0268 3.69249ZM116.773 2.3598H116.657C113.902 2.02026 110.789 1.63828 107.688 1.34967C107.522 1.33286 107.373 1.27366 107.272 1.18479C107.171 1.09591 107.127 0.984443 107.149 0.874313C107.159 0.818705 107.185 0.764923 107.227 0.71619C107.268 0.667458 107.324 0.62478 107.391 0.590701C107.458 0.556622 107.535 0.531848 107.616 0.517863C107.698 0.503878 107.783 0.500967 107.867 0.509308C110.942 0.797917 114.069 1.18839 116.837 1.52793C117.003 1.54857 117.15 1.6119 117.246 1.70413C117.342 1.79636 117.379 1.90999 117.349 2.02026C117.327 2.11473 117.259 2.20177 117.155 2.26779C117.05 2.33382 116.916 2.37512 116.773 2.38526V2.3598ZM89.7611 1.26478C89.5912 1.27154 89.4242 1.2333 89.2968 1.15848C89.1694 1.08366 89.0921 0.978394 89.082 0.865829C89.0718 0.753265 89.1295 0.642626 89.2424 0.558255C89.3554 0.473884 89.5143 0.422688 89.6842 0.415934C91.3116 0.297095 93.0542 0.186747 94.8097 0.0933739C95.9373 0.0339545 97.129 0 98.3463 0H98.7692C98.8533 0.00110364 98.9363 0.0131796 99.0134 0.0355349C99.0905 0.0578903 99.1602 0.0900863 99.2185 0.130288C99.2768 0.17049 99.3226 0.217912 99.3532 0.269837C99.3839 0.321763 99.3988 0.377176 99.3971 0.432915C99.3876 0.542639 99.3167 0.646079 99.1982 0.723003C99.0797 0.799928 98.9222 0.844801 98.7564 0.848849H98.3463C97.1675 0.848849 96.0142 0.848848 94.8994 0.933732C93.1311 1.02711 91.4141 1.13746 89.7739 1.26478H89.7611Z" fill="white"/>
<path opacity="0.6" d="M86.3746 150C84.8498 149.958 83.3377 149.881 81.877 149.788C81.7932 149.784 81.7116 149.768 81.637 149.743C81.5624 149.717 81.4962 149.682 81.4424 149.639C81.3886 149.597 81.3484 149.547 81.324 149.494C81.2996 149.441 81.2915 149.385 81.3003 149.329C81.3049 149.273 81.3269 149.219 81.3648 149.169C81.4027 149.119 81.4558 149.074 81.5208 149.039C81.5857 149.003 81.6611 148.976 81.7422 148.96C81.8233 148.945 81.9085 148.94 81.9923 148.947C83.4403 149.041 84.9267 149.109 86.4387 149.151C86.6086 149.151 86.7715 149.196 86.8917 149.275C87.0119 149.355 87.0794 149.463 87.0794 149.576C87.0794 149.688 87.0119 149.796 86.8917 149.876C86.7715 149.955 86.6086 150 86.4387 150H86.3746Z" fill="white"/>
</g>
<path opacity="0.8" d="M137.572 18.75H138.656V19.5765H135.603V18.75H137.572ZM142.472 18.8271L145.524 18.9483V19.7748L142.472 19.6536V18.8271ZM131.787 18.8271V19.6536C130.78 19.6536 129.765 19.7197 128.735 19.7748V18.9483C129.758 18.9263 130.772 18.8932 131.78 18.8602L131.787 18.8271ZM124.919 19.1687V19.9952L121.867 20.2157V19.3891L124.919 19.1687ZM149.34 19.1687C150.37 19.2569 151.393 19.3561 152.392 19.4663L152.354 20.2928C151.354 20.1826 150.347 20.0834 149.302 19.9952L149.34 19.1687ZM118.051 19.7087L118.089 20.5352L115.036 20.8438L114.991 20.0173L118.051 19.7087ZM156.208 19.9512C157.246 20.1054 158.253 20.2708 159.261 20.4581L159.192 21.2736C158.208 21.0973 157.193 20.932 156.139 20.7777L156.208 19.9512ZM111.183 20.4581L111.236 21.2846L108.183 21.6703L108.13 20.8438L111.183 20.4581ZM163.015 21.2185C164.046 21.4499 165.053 21.7034 166.068 21.9679L165.961 22.7723C164.984 22.5189 163.985 22.2654 162.962 22.034L163.015 21.2185ZM104.345 21.3728L104.398 22.1993L101.346 22.6511L101.285 21.8246L104.345 21.3728ZM97.4765 22.4748L97.5452 23.3013L96.782 23.4336C96.0189 23.5548 95.2939 23.687 94.5536 23.8303L94.4773 23.0148L96.721 22.607L97.4765 22.4748ZM169.792 23.1581C170.799 23.4887 171.799 23.8413 172.761 24.2601L172.616 25.0646C171.662 24.6899 170.67 24.3482 169.662 24.0176L169.792 23.1581ZM90.7303 23.8303L90.8219 24.6458C89.8145 24.8882 88.8148 25.1307 87.8151 25.4062L87.7082 24.5907C88.7054 24.3262 89.7128 24.0727 90.7303 23.8303ZM83.9536 25.6597L84.068 26.4641C83.076 26.7727 82.0839 27.0813 81.0918 27.4119L80.9697 26.6074C81.9312 26.2768 82.9233 25.9682 83.923 25.6597H83.9536ZM176.47 25.7258C177.454 26.1776 178.431 26.6625 179.37 27.1584L179.171 27.9298C178.24 27.4449 177.271 26.96 176.294 26.5082L176.47 25.7258ZM77.2608 27.9298L77.4058 28.7233C76.4213 29.087 75.4369 29.4617 74.4601 29.8253L74.3074 29.0319L77.2608 27.9298ZM182.926 29.2412C183.872 29.8474 184.803 30.4865 185.696 31.1478L185.437 31.8861C184.551 31.2249 183.628 30.5967 182.697 30.0017L182.926 29.2412ZM70.6367 30.5637L70.797 31.3571L67.8894 32.6355L67.7215 31.8531C68.6525 31.4012 69.6217 30.9714 70.5985 30.5527L70.6367 30.5637ZM64.0813 33.5502L64.2645 34.3326C63.2953 34.8065 62.3337 35.2804 61.3798 35.7652L61.189 34.9828L64.0813 33.5502ZM189.039 33.8587C189.916 34.6412 190.779 35.4677 191.595 36.3163L191.259 36.9885C190.45 36.151 189.603 35.3355 188.733 34.564L189.039 33.8587ZM57.5946 36.8562L57.793 37.6387C56.8391 38.1456 55.8851 38.6636 54.9388 39.1926L54.7328 38.4211C55.6256 37.8811 56.5948 37.3632 57.5564 36.8452L57.5946 36.8562ZM194.564 39.6885C195.342 40.6582 196.09 41.6721 196.807 42.73L196.395 43.3031C195.693 42.2782 194.953 41.2644 194.19 40.3166L194.564 39.6885ZM51.1384 40.3938L51.3597 41.1542C50.4057 41.7162 49.4671 42.2562 48.536 42.8403L48.3147 42.0799C49.2458 41.5619 50.1921 40.9999 51.1384 40.4489V40.3938ZM44.8043 44.2509L45.0332 45.0112L42.2401 46.7965L42.0112 46.0472C42.9269 45.4961 43.858 44.901 44.8043 44.306V44.2509ZM199.364 46.8626C200.012 48.0291 200.585 49.2797 201.073 50.5985L200.57 50.9842C200.098 49.7096 199.544 48.5029 198.914 47.3806L199.364 46.8626ZM38.5388 48.3614L38.7754 49.1108C37.852 49.7389 36.9286 50.3671 36.0205 51.0063L35.7763 50.2569C36.6844 49.6728 37.6002 49.0447 38.5388 48.4165V48.3614ZM32.3421 52.6924L32.6016 53.4307L29.8772 55.4254L29.6177 54.687L32.3421 52.6924ZM202.371 55.8882C202.499 56.884 202.563 57.8949 202.561 58.9078C202.561 59.4037 202.561 59.8886 202.516 60.3845L201.951 60.3184C201.951 59.8445 201.989 59.3817 201.989 58.9078C201.988 57.9472 201.929 56.9885 201.814 56.0425L202.371 55.8882ZM26.2293 57.3209L26.4964 58.0482C25.5806 58.7535 24.6801 59.4478 23.8025 60.1421L23.5278 59.4147L26.2293 57.3209ZM20.1852 62.0816L20.46 62.798L17.8042 65.002L17.5219 64.2857C18.3842 63.5253 19.2695 62.831 20.1852 62.0596V62.0816ZM201.05 65.5971L201.585 65.9057C201.203 67.2929 200.741 68.6311 200.203 69.906L199.715 69.4762C200.245 68.2347 200.699 66.9295 201.073 65.5751L201.05 65.5971ZM14.1945 67.0408L14.4845 67.7571C13.5764 68.5285 12.6988 69.2889 11.8669 70.0162L11.5693 69.3109L14.1945 67.0408ZM8.3107 72.2093L8.61595 72.9146C7.68491 73.7521 6.82257 74.5456 6.0289 75.2729L5.72362 74.5786C6.53256 73.8513 7.39493 73.0358 8.3107 72.1872V72.2093ZM197.525 73.8513L197.96 74.3913C197.326 75.4933 196.624 76.5953 195.869 77.6974L195.464 77.1023C196.212 76.0002 196.899 74.9533 197.525 73.8513ZM2.54132 77.5872L2.86183 78.2814C1.21344 79.8683 0.335846 80.772 0.328217 80.772L4.57764e-05 80.0998C4.57764e-05 80.0998 0.8853 79.1851 2.54132 77.5872ZM192.648 80.7279L193.015 81.3671C192.251 82.2708 191.442 83.1965 190.595 84.1001L190.26 83.4389C191.099 82.5353 191.9 81.6316 192.648 80.7279ZM187.138 86.5687L187.451 87.2629C186.612 88.0454 185.734 88.8389 184.849 89.6103L184.551 88.894C185.437 88.1776 186.307 87.3511 187.138 86.5687ZM181.239 91.616L181.514 92.3433C180.629 93.0266 179.713 93.7098 178.79 94.371L178.538 93.6327C179.453 92.9714 180.362 92.2882 181.239 91.616ZM175.088 95.9579L175.317 96.7183C174.371 97.3245 173.417 97.8975 172.494 98.4375L172.28 97.6661C173.203 97.1371 174.15 96.5641 175.088 95.9579Z" fill="#F98731"/>
</g>
<path d="M60.721 59.5561L176.608 58.5088L179.999 134.999L60.002 134.165L60.721 59.5561Z" fill="#F98731"/>
<path d="M60.7197 59.572L115.464 16.3725C116.589 15.4847 117.994 15 119.444 15C120.893 15 122.298 15.4847 123.423 16.3725L176.599 58.5168" fill="#F98731"/>
<g opacity="0.3">
<path opacity="0.3" d="M60.7197 59.572L115.464 16.3725C116.589 15.4847 117.994 15 119.444 15C120.893 15 122.298 15.4847 123.423 16.3725L176.599 58.5168" fill="black"/>
</g>
<path d="M60.0015 134.15C59.8626 134.015 69.112 124.161 80.6738 112.141C92.2355 100.122 101.73 90.5139 101.877 90.625C102.024 90.7361 92.7666 100.606 81.1967 112.633C69.6268 124.661 60.1486 134.293 60.0015 134.15Z" fill="#263238"/>
<path d="M179.997 134.999C179.85 135.133 170.797 125.478 159.775 113.522C148.752 101.566 139.936 91.7039 140.083 91.5769C140.23 91.45 149.283 101.097 160.314 113.062C171.345 125.026 180.144 134.872 179.997 134.999Z" fill="#263238"/>
<g opacity="0.5">
<path opacity="0.5" d="M176.607 58.5088L118.512 103.763L60.7197 59.5561" fill="black"/>
</g>
<path d="M66.571 63.7294L66.3096 28.5826L167.783 27.218L169.001 64.1895L118.505 103.168L66.571 63.7294Z" fill="#FAFAFA"/>
<path d="M66.5704 63.7293C66.5704 63.7293 66.9054 63.9594 67.5345 64.4275L70.2963 66.4982L80.804 74.432C89.8573 81.2948 102.865 91.093 118.61 103.057H118.398L168.869 64.0467L168.796 64.2133C168.559 57.1602 168.314 49.7579 168.068 42.2287C167.897 37.159 167.733 32.1449 167.57 27.2339L167.783 27.4322L66.3171 28.7334L66.4478 28.5985C66.4968 39.6503 66.5458 48.433 66.5704 54.4468C66.5704 57.4537 66.5704 59.7704 66.5704 61.3492C66.5704 62.1426 66.5704 62.7217 66.5704 63.1343C66.5704 63.5469 66.5704 63.7452 66.5704 63.7452C66.5704 63.7452 66.5704 63.5469 66.5704 63.1502C66.5704 62.7535 66.5704 62.1505 66.5704 61.3809C66.5704 59.7942 66.5213 57.4934 66.4886 54.4944C66.4314 48.4568 66.3416 39.6741 66.2354 28.5985V28.4715H66.3661L167.774 27.0435H167.987V27.2497C168.15 32.1608 168.314 37.167 168.485 42.2367C168.73 49.7659 168.975 57.1681 169.204 64.2212V64.3244L169.123 64.3879L118.594 103.343L118.488 103.43L118.382 103.343L80.616 74.5669L70.19 66.5855L67.4692 64.491L66.5704 63.7293Z" fill="#263238"/>
<path d="M151.783 44.9422C151.783 45.0532 136.259 45.2674 117.123 45.4182C97.9865 45.5689 82.4619 45.6007 82.4619 45.4896C82.4619 45.3785 97.9865 45.1643 117.123 45.0056C136.259 44.8469 151.783 44.8231 151.783 44.9422Z" fill="#263238"/>
<path d="M151.8 54.8673C151.8 54.9784 136.275 55.2005 117.147 55.3512C98.0191 55.502 82.4863 55.5337 82.4863 55.4147C82.4863 55.2957 98.0109 55.0894 117.147 54.9387C136.283 54.788 151.8 54.7562 151.8 54.8673Z" fill="#263238"/>
<path d="M151.824 66.308C151.824 66.427 136.299 66.6412 117.171 66.7919C98.0435 66.9427 82.5107 66.9744 82.5107 66.8554C82.5107 66.7364 98.0353 66.5301 117.171 66.3794C136.308 66.2286 151.824 66.1969 151.824 66.308Z" fill="#263238"/>
<path d="M151.849 77.7485C151.849 77.8675 137.052 78.0737 118.79 78.2166C100.528 78.3594 85.7227 78.3911 85.7227 78.2721C85.7227 78.1531 100.52 77.9468 118.79 77.804C137.06 77.6612 151.849 77.6374 151.849 77.7485Z" fill="#263238"/>
<path d="M138.908 87.8163C138.775 87.8524 138.637 87.8684 138.5 87.8639L137.331 87.9115L133.05 88.0146L118.906 88.2685C113.382 88.3637 108.374 88.3954 104.754 88.3954H100.472H99.304C99.1667 88.399 99.0294 88.3856 98.8955 88.3558C99.0284 88.3197 99.1662 88.3037 99.304 88.3082L100.464 88.2606L104.754 88.1574L118.898 87.9115C124.421 87.8084 129.422 87.7766 133.041 87.7766H137.331H138.5C138.637 87.7767 138.774 87.79 138.908 87.8163Z" fill="#263238"/>
<path d="M125.833 97.4955C123.389 97.7093 120.933 97.7834 118.48 97.7177C116.027 97.7928 113.571 97.7292 111.126 97.5273C113.571 97.3182 116.026 97.2441 118.48 97.3051C120.933 97.2347 123.388 97.2983 125.833 97.4955Z" fill="#263238"/>
<circle opacity="0.95" cx="120" cy="52.1999" r="16.8" fill="#61C5BA"/>
<path d="M129.379 45.3609C128.881 44.8797 128.091 44.8797 127.593 45.3609L115.645 57.309L111.411 53.0751C110.917 52.5644 110.103 52.5503 109.593 53.0436C109.082 53.5369 109.068 54.3509 109.561 54.8616C109.571 54.8723 109.582 54.8828 109.593 54.8931L114.736 60.036C115.238 60.538 116.052 60.538 116.554 60.036L129.411 47.1788C129.904 46.6681 129.89 45.8542 129.379 45.3609Z" fill="white"/>
</svg>
