<svg width="355" height="301" viewBox="0 0 355 301" fill="none" xmlns="http://www.w3.org/2000/svg">
<path d="M129.742 50.6855C-1.69466 -8.72393 -18.2043 68.1883 33.1196 116.794C76.8886 158.245 -5.45578 182.519 0.879195 236.413C7.21417 290.306 35.0799 296.641 93.4216 281.738C151.763 266.835 154.732 275.884 235.63 297.306C316.344 318.679 376.203 241.588 344.4 209.296C312.598 177.004 295.37 184.461 323.415 119.17C422.997 -112.67 259.462 71.8643 129.742 50.6855Z" fill="#FFF0E7"/>
<path d="M54.0089 276.026L83.0963 231.801C83.0963 231.801 60.6663 244.751 56.7771 259.266L68.9461 226.551C68.9461 226.551 56.5928 236.367 52.5169 255.207C48.4409 274.048 54.0089 276.026 54.0089 276.026Z" fill="#F98731"/>
<path d="M53.7264 276.311L25.3383 233.15C25.3383 233.15 47.229 245.788 51.0248 259.954L39.1483 228.026C39.1483 228.026 51.2047 237.606 55.1826 255.993C59.1605 274.381 53.7264 276.311 53.7264 276.311Z" fill="#F98731"/>
<ellipse cx="176.083" cy="278.597" rx="145.665" ry="5.88545" fill="#FFE0CD"/>
<path d="M287.213 270.769L280.051 270.768L276.643 243.14L287.215 243.14L287.213 270.769Z" fill="#FFB8B8"/>
<path d="M266.236 277.419L288.748 277.42L288.749 268.722L274.935 268.722C272.628 268.722 270.415 269.638 268.784 271.269C267.153 272.9 266.236 275.112 266.236 277.419L266.236 277.419Z" fill="#2F2E41"/>
<path d="M312.922 270.769L305.76 270.768L302.352 243.14L312.924 243.14L312.922 270.769Z" fill="#FFB8B8"/>
<path d="M291.941 277.419L314.453 277.42L314.454 268.722L300.64 268.722C298.333 268.722 296.12 269.638 294.489 271.269C292.858 272.9 291.942 275.112 291.941 277.419L291.941 277.419Z" fill="#2F2E41"/>
<path d="M306.662 262.272L313.659 261.904C314.02 261.885 314.373 261.794 314.699 261.638C315.024 261.481 315.316 261.262 315.556 260.992C315.796 260.722 315.98 260.407 316.098 260.065C316.215 259.724 316.264 259.362 316.24 259.002L307.878 166.416L269.369 176.808L265.659 175.796L277.261 257.758C277.36 258.375 277.666 258.939 278.129 259.358C278.592 259.777 279.184 260.026 279.807 260.063L287.35 260.414C287.727 260.435 288.104 260.378 288.458 260.246C288.812 260.113 289.134 259.909 289.405 259.646C289.676 259.382 289.889 259.066 290.031 258.716C290.173 258.366 290.241 257.99 290.231 257.613L288.864 208.42C288.858 208.192 288.937 207.971 289.086 207.799C289.235 207.627 289.443 207.517 289.669 207.49C289.895 207.464 290.122 207.523 290.307 207.656C290.492 207.789 290.62 207.987 290.666 208.21L303.845 260.099C303.969 260.715 304.303 261.268 304.79 261.665C305.277 262.062 305.886 262.278 306.514 262.276C306.563 262.276 306.613 262.275 306.662 262.272Z" fill="#2F2E41"/>
<path d="M285.925 90.662C278 90.662 271.575 84.2373 271.575 76.312C271.575 68.3866 278 61.9619 285.925 61.9619C293.851 61.9619 300.275 68.3866 300.275 76.312C300.275 84.2373 293.851 90.662 285.925 90.662Z" fill="#FFB8B8"/>
<path d="M309.819 118.471L308.241 152.515L307.67 164.9C307.648 165.439 307.465 165.96 307.145 166.394C306.825 166.829 306.382 167.158 305.874 167.34L268.869 180.745C268.571 180.856 268.254 180.911 267.935 180.909C267.57 180.91 267.209 180.839 266.873 180.698C266.537 180.557 266.233 180.35 265.978 180.088C265.724 179.827 265.525 179.518 265.393 179.178C265.261 178.838 265.199 178.475 265.21 178.111L266.727 116.9C266.827 111.878 268.675 107.048 271.954 103.243C275.233 99.4374 279.737 96.8954 284.69 96.0549C285.047 96.0003 285.412 95.9457 285.776 95.8972C288.847 95.516 291.964 95.8123 294.908 96.7653C297.851 97.7183 300.551 99.3049 302.816 101.413C305.161 103.57 307.004 106.216 308.214 109.164C309.424 112.111 309.972 115.289 309.819 118.471L309.819 118.471Z" fill="#CCCCCC"/>
<path d="M251.191 173.952C252.067 173.68 252.866 173.208 253.527 172.572C254.187 171.937 254.689 171.156 254.994 170.291C255.299 169.427 255.397 168.504 255.282 167.594C255.166 166.685 254.84 165.816 254.328 165.055L266.877 148.369L256.048 147.699L245.792 163.647C244.694 164.496 243.93 165.705 243.634 167.061C243.338 168.416 243.528 169.833 244.173 171.063C244.817 172.292 245.873 173.255 247.157 173.784C248.44 174.312 249.869 174.371 251.191 173.952H251.191Z" fill="#FFB8B8"/>
<path d="M260.015 162.036C260.347 161.901 260.65 161.701 260.904 161.449C261.159 161.196 261.361 160.895 261.499 160.564L280.405 115.521C280.776 114.639 280.969 113.693 280.975 112.736C280.98 111.779 280.796 110.831 280.434 109.945C280.073 109.059 279.54 108.254 278.867 107.574C278.194 106.894 277.393 106.353 276.511 105.983C275.629 105.613 274.682 105.42 273.725 105.416C272.769 105.412 271.821 105.596 270.935 105.958C270.05 106.32 269.244 106.854 268.565 107.527C267.886 108.201 267.346 109.002 266.976 109.885L248.07 154.928C247.791 155.596 247.788 156.348 248.062 157.018C248.336 157.688 248.864 158.222 249.531 158.503L257.925 162.026C258.255 162.165 258.61 162.238 258.969 162.24C259.327 162.242 259.683 162.172 260.015 162.036L260.015 162.036Z" fill="#CCCCCC"/>
<path d="M290.539 160.447L272.381 125.678C272.03 125.01 271.429 124.507 270.709 124.281C269.989 124.055 269.209 124.124 268.539 124.473L242.182 138.238C241.514 138.588 241.011 139.189 240.785 139.909C240.559 140.63 240.628 141.41 240.977 142.079L259.135 176.848C259.485 177.517 260.086 178.019 260.807 178.245C261.527 178.471 262.307 178.402 262.977 178.054L289.333 164.288C290.002 163.938 290.505 163.337 290.731 162.617C290.957 161.897 290.888 161.116 290.539 160.447Z" fill="#3F3D56"/>
<path d="M278.364 144.562C278.686 143.704 279.205 142.934 279.879 142.312C280.552 141.691 281.361 141.235 282.242 140.982C283.123 140.729 284.05 140.685 284.951 140.854C285.852 141.023 286.701 141.401 287.429 141.956L304.828 130.414L304.857 141.264L288.331 150.561C287.419 151.606 286.167 152.298 284.796 152.513C283.425 152.729 282.022 152.455 280.833 151.739C279.644 151.023 278.745 149.912 278.293 148.6C277.841 147.287 277.866 145.858 278.364 144.562Z" fill="#FFB8B8"/>
<path d="M300.359 147.002L314.578 135.739C316.116 135.222 317.506 134.34 318.629 133.168C319.751 131.996 320.572 130.57 321.022 129.01C321.471 127.451 321.536 125.806 321.209 124.217C320.883 122.627 320.176 121.141 319.149 119.885L306.239 102.965C305.341 101.868 304.08 101.132 302.684 100.889C301.288 100.646 299.852 100.914 298.637 101.643C297.423 102.372 296.511 103.514 296.069 104.86C295.627 106.206 295.685 107.666 296.231 108.974L306.446 125.683L291.434 132.804C291.085 132.969 290.775 133.207 290.524 133.501C290.274 133.795 290.089 134.139 289.981 134.511C289.874 134.882 289.846 135.271 289.9 135.654C289.954 136.036 290.089 136.403 290.295 136.73L296.355 146.32C296.56 146.643 296.831 146.92 297.149 147.133C297.468 147.345 297.828 147.489 298.205 147.553C298.22 147.556 298.235 147.558 298.251 147.56C298.622 147.616 299 147.596 299.363 147.5C299.725 147.404 300.065 147.234 300.359 147.002Z" fill="#CCCCCC"/>
<path d="M296.767 85.9206C296.829 85.7405 296.848 85.5487 296.824 85.3599C296.8 85.171 296.733 84.9902 296.629 84.8312C296.524 84.6722 296.384 84.5393 296.22 84.4427C296.056 84.346 295.872 84.2882 295.683 84.2736C295.294 84.2947 294.914 84.3944 294.565 84.5666C294.215 84.7388 293.905 84.98 293.652 85.2756C293.132 85.8744 292.528 86.3935 291.857 86.8163C291.163 87.1662 290.222 87.1164 289.826 86.4493C289.454 85.8228 289.709 84.9839 289.934 84.2563C290.506 82.405 290.827 80.4849 290.886 78.548C290.951 76.3861 290.646 74.1299 289.449 72.4436C287.904 70.2674 285.142 69.4412 282.528 69.5011C279.914 69.561 277.343 70.368 274.753 70.878C273.86 71.0541 272.809 71.1442 272.211 70.4514C271.575 69.7147 271.809 68.5225 272.079 67.5279C272.781 64.947 273.525 62.2785 275.155 60.1941C276.918 58.0282 279.436 56.6106 282.202 56.2269C284.858 55.8979 287.553 56.204 290.068 57.1199C294.164 58.411 297.768 60.922 300.399 64.3171C303.111 67.9277 304.283 72.4651 303.658 76.9373C303.048 80.8323 300.984 84.3512 297.882 86.7848L296.767 85.9206Z" fill="#2F2E41"/>
<path d="M230.505 180.093V68.9517C230.501 65.5444 229.145 62.2779 226.736 59.8685C224.326 57.4592 221.06 56.1035 217.652 56.0986H43.0015C39.5942 56.1035 36.3277 57.4592 33.9184 59.8685C31.509 62.2779 30.1533 65.5444 30.1484 68.9517V180.093C30.1533 183.501 31.509 186.767 33.9184 189.176C36.3277 191.586 39.5942 192.941 43.0015 192.946H217.652C221.06 192.941 224.326 191.586 226.736 189.176C229.145 186.767 230.501 183.501 230.505 180.093ZM43.0015 191.434C39.9948 191.43 37.1123 190.234 34.9863 188.108C32.8602 185.982 31.6642 183.1 31.6606 180.093V68.9517C31.6642 65.945 32.8602 63.0625 34.9863 60.9365C37.1123 58.8104 39.9948 57.6144 43.0015 57.6108H217.652C220.659 57.6144 223.542 58.8104 225.668 60.9365C227.794 63.0625 228.99 65.945 228.993 68.9517V180.093C228.99 183.1 227.794 185.982 225.668 188.108C223.542 190.234 220.659 191.43 217.652 191.434H43.0015Z" fill="#F98731"/>
<path d="M228.991 76.0956H31.6584C31.4579 76.0956 31.2656 76.0159 31.1238 75.8742C30.982 75.7324 30.9023 75.5401 30.9023 75.3395C30.9023 75.139 30.982 74.9467 31.1238 74.8049C31.2656 74.6632 31.4579 74.5835 31.6584 74.5835H228.991C229.192 74.5835 229.384 74.6632 229.526 74.8049C229.668 74.9467 229.747 75.139 229.747 75.3395C229.747 75.5401 229.668 75.7324 229.526 75.8742C229.384 76.0159 229.192 76.0956 228.991 76.0956Z" fill="#F98731"/>
<path d="M44.5127 70.4637C46.6006 70.4637 48.2931 68.7712 48.2931 66.6834C48.2931 64.5956 46.6006 62.9031 44.5127 62.9031C42.4249 62.9031 40.7324 64.5956 40.7324 66.6834C40.7324 68.7712 42.4249 70.4637 44.5127 70.4637Z" fill="#F98731"/>
<path d="M57.3643 70.4637C59.4521 70.4637 61.1446 68.7712 61.1446 66.6834C61.1446 64.5956 59.4521 62.9031 57.3643 62.9031C55.2765 62.9031 53.584 64.5956 53.584 66.6834C53.584 68.7712 55.2765 70.4637 57.3643 70.4637Z" fill="#F98731"/>
<path d="M70.2178 70.4637C72.3056 70.4637 73.9981 68.7712 73.9981 66.6834C73.9981 64.5956 72.3056 62.9031 70.2178 62.9031C68.13 62.9031 66.4375 64.5956 66.4375 66.6834C66.4375 68.7712 68.13 70.4637 70.2178 70.4637Z" fill="#F98731"/>
<path d="M98.7047 170.217C98.6379 170.217 98.5717 170.203 98.51 170.178C98.4482 170.152 98.3921 170.115 98.3449 170.068C98.2976 170.02 98.2601 169.964 98.2346 169.902C98.209 169.841 98.1959 169.775 98.1959 169.708C98.1959 164.403 95.8703 161.444 92.1183 158.389C92.0663 158.347 92.0231 158.295 91.9912 158.236C91.9593 158.177 91.9393 158.112 91.9324 158.046C91.9255 157.979 91.9318 157.912 91.9509 157.848C91.9701 157.784 92.0017 157.724 92.0439 157.672C92.0862 157.62 92.1383 157.577 92.1972 157.545C92.2561 157.514 92.3207 157.494 92.3873 157.487C92.4539 157.48 92.5212 157.487 92.5852 157.506C92.6493 157.526 92.709 157.557 92.7607 157.6C96.7446 160.843 99.2135 164 99.2135 169.708C99.2135 169.775 99.2003 169.841 99.1748 169.902C99.1492 169.964 99.1117 170.02 99.0645 170.068C99.0172 170.115 98.9611 170.152 98.8994 170.178C98.8377 170.203 98.7715 170.217 98.7047 170.217Z" fill="#F98731"/>
<path d="M55.1201 170.217C55.0533 170.217 54.9871 170.203 54.9254 170.178C54.8637 170.152 54.8076 170.115 54.7603 170.068C54.7131 170.02 54.6756 169.964 54.65 169.902C54.6245 169.841 54.6113 169.775 54.6113 169.708C54.6113 164 57.0802 160.843 61.0641 157.6C61.1158 157.557 61.1755 157.526 61.2396 157.506C61.3036 157.487 61.3709 157.48 61.4375 157.487C61.5041 157.494 61.5687 157.514 61.6276 157.545C61.6865 157.577 61.7386 157.62 61.7809 157.672C61.8231 157.724 61.8547 157.784 61.8739 157.848C61.893 157.912 61.8993 157.979 61.8924 158.046C61.8855 158.112 61.8655 158.177 61.8336 158.236C61.8017 158.295 61.7585 158.347 61.7065 158.389C57.9545 161.444 55.6289 164.403 55.6289 169.708C55.6289 169.775 55.6158 169.841 55.5902 169.902C55.5646 169.964 55.5272 170.02 55.4799 170.068C55.4327 170.115 55.3766 170.152 55.3148 170.178C55.2531 170.203 55.1869 170.217 55.1201 170.217Z" fill="#F98731"/>
<path d="M94.3449 135.349C94.2398 135.349 94.1373 135.317 94.0515 135.256C93.9656 135.195 93.9006 135.11 93.8654 135.011C93.8302 134.912 93.8264 134.804 93.8547 134.703C93.883 134.602 93.942 134.512 94.0234 134.446C97.8803 131.306 98.1941 126.845 98.1941 121.765C98.1941 121.63 98.2477 121.501 98.3431 121.405C98.4385 121.31 98.5679 121.256 98.7029 121.256C98.8378 121.256 98.9672 121.31 99.0626 121.405C99.1581 121.501 99.2116 121.63 99.2116 121.765C99.2116 127.11 98.8696 131.812 94.6659 135.235C94.5753 135.309 94.4619 135.349 94.3449 135.349Z" fill="#F98731"/>
<path d="M59.4783 135.077C59.3613 135.077 59.2479 135.037 59.1574 134.963C54.9534 131.54 54.6113 126.961 54.6113 121.765C54.6113 121.63 54.6649 121.501 54.7604 121.405C54.8558 121.31 54.9852 121.256 55.1201 121.256C55.2551 121.256 55.3845 121.31 55.4799 121.405C55.5753 121.501 55.6289 121.63 55.6289 121.765C55.6289 126.872 55.936 131.028 59.7998 134.173C59.8813 134.24 59.9402 134.33 59.9685 134.431C59.9968 134.532 59.9931 134.64 59.9578 134.739C59.9226 134.838 59.8576 134.923 59.7718 134.984C59.6859 135.044 59.5834 135.077 59.4783 135.077V135.077Z" fill="#F98731"/>
<path d="M105.241 146.263H94.3447C94.2098 146.263 94.0804 146.21 93.985 146.114C93.8895 146.019 93.8359 145.889 93.8359 145.754C93.8359 145.619 93.8895 145.49 93.985 145.395C94.0804 145.299 94.2098 145.246 94.3447 145.246H105.241C105.376 145.246 105.505 145.299 105.6 145.395C105.696 145.49 105.749 145.619 105.749 145.754C105.749 145.889 105.696 146.019 105.6 146.114C105.505 146.21 105.376 146.263 105.241 146.263Z" fill="#F98731"/>
<path d="M59.4789 146.263H48.583C48.4481 146.263 48.3187 146.21 48.2232 146.114C48.1278 146.019 48.0742 145.889 48.0742 145.754C48.0742 145.619 48.1278 145.49 48.2232 145.395C48.3187 145.299 48.4481 145.246 48.583 145.246H59.4789C59.6139 145.246 59.7433 145.299 59.8387 145.395C59.9341 145.49 59.9877 145.619 59.9877 145.754C59.9877 145.889 59.9341 146.019 59.8387 146.114C59.7433 146.21 59.6139 146.263 59.4789 146.263Z" fill="#F98731"/>
<path d="M76.9131 168.037C76.8463 168.037 76.7801 168.024 76.7184 167.998C76.6566 167.973 76.6005 167.935 76.5533 167.888C76.506 167.841 76.4686 167.785 76.443 167.723C76.4174 167.661 76.4043 167.595 76.4043 167.528V132.661C76.4043 132.526 76.4579 132.397 76.5533 132.302C76.6487 132.206 76.7781 132.153 76.9131 132.153C77.048 132.153 77.1774 132.206 77.2729 132.302C77.3683 132.397 77.4219 132.526 77.4219 132.661V167.528C77.4219 167.595 77.4087 167.661 77.3832 167.723C77.3576 167.785 77.3201 167.841 77.2729 167.888C77.2256 167.935 77.1695 167.973 77.1078 167.998C77.0461 168.024 76.9799 168.037 76.9131 168.037Z" fill="#F98731"/>
<path d="M76.9109 168.037C72.154 168.032 67.5934 166.14 64.2298 162.776C60.8662 159.412 58.9741 154.852 58.9688 150.095V137.01C58.9688 128.632 65.8438 123.427 76.9109 123.427C88.4813 123.427 94.8533 128.251 94.8533 137.01V150.095C94.8479 154.852 92.9558 159.413 89.5921 162.776C86.2284 166.14 81.6678 168.032 76.9109 168.037ZM76.9109 124.444C68.7291 124.444 59.9863 127.745 59.9863 137.01V150.095C59.9851 152.318 60.422 154.52 61.272 156.575C62.122 158.629 63.3684 160.496 64.9401 162.069C66.5119 163.641 68.3781 164.889 70.4321 165.74C72.4861 166.591 74.6876 167.029 76.911 167.029C79.1344 167.029 81.3359 166.591 83.3899 165.74C85.4439 164.889 87.3101 163.641 88.8819 162.069C90.4536 160.496 91.7001 158.629 92.5501 156.575C93.4001 154.52 93.8369 152.318 93.8357 150.095V137.01C93.8357 126.077 83.2317 124.444 76.9109 124.444Z" fill="#F98731"/>
<path d="M66.4834 126.567C66.3816 126.567 66.2821 126.537 66.1978 126.48C66.1135 126.423 66.0483 126.342 66.0106 126.247C65.7168 125.511 65.5469 124.732 65.5078 123.941C65.5167 120.925 66.717 118.034 68.8474 115.899C70.9777 113.763 73.8656 112.556 76.8819 112.54H76.9403C79.9528 112.554 82.8379 113.757 84.9682 115.887C87.0985 118.017 88.3018 120.902 88.3165 123.915C88.2901 124.651 88.1333 125.376 87.8534 126.057C87.8014 126.181 87.7026 126.279 87.5784 126.331C87.4543 126.382 87.3149 126.382 87.1907 126.331C87.0665 126.28 86.9675 126.182 86.9154 126.058C86.8632 125.934 86.8621 125.795 86.9123 125.67C87.1447 125.106 87.2757 124.505 87.2994 123.896C87.2814 121.156 86.1835 118.533 84.2438 116.598C82.3041 114.662 79.6793 113.57 76.9391 113.557H76.8832C74.1399 113.571 71.5129 114.667 69.5732 116.607C67.6335 118.547 66.538 121.174 66.5246 123.917C66.5607 124.587 66.7063 125.247 66.9557 125.87C66.9864 125.947 66.9977 126.031 66.9887 126.113C66.9797 126.196 66.9507 126.275 66.9041 126.344C66.8576 126.412 66.7949 126.469 66.7216 126.508C66.6482 126.547 66.5665 126.567 66.4834 126.567H66.4834Z" fill="#F98731"/>
<path d="M55.9219 94.8567C55.9219 97.5092 57.9271 99.5779 60.5796 99.5779C63.2321 99.5779 65.2374 97.5092 65.2374 94.8567C65.2374 92.2804 63.2321 90.2625 60.5796 90.2625C57.9271 90.2625 55.9219 92.2804 55.9219 94.8567ZM57.6098 94.8567C57.6098 93.0799 58.9297 91.76 60.5796 91.76C62.2295 91.76 63.5494 93.0799 63.5494 94.8567C63.5494 96.7097 62.2295 98.0804 60.5796 98.0804C58.9297 98.0804 57.6098 96.7097 57.6098 94.8567Z" fill="#404040"/>
<path d="M66.169 96.1893C66.169 98.1819 67.7554 99.5779 69.7353 99.5779C71.7024 99.5779 73.2889 98.1819 73.2889 96.1893C73.2889 94.2095 71.7024 92.8007 69.7226 92.8007C67.7554 92.8007 66.169 94.2095 66.169 96.1893ZM67.8062 96.1893C67.8062 94.9963 68.6819 94.1714 69.7353 94.1714C70.776 94.1714 71.6517 94.9963 71.6517 96.1893C71.6517 97.395 70.776 98.2073 69.7353 98.2073C68.6819 98.2073 67.8062 97.395 67.8062 96.1893Z" fill="#404040"/>
<path d="M74.1011 96.1893C74.1011 98.1819 75.6875 99.5779 77.6674 99.5779C79.6346 99.5779 81.221 98.1819 81.221 96.1893C81.221 94.2095 79.6346 92.8007 77.6547 92.8007C75.6875 92.8007 74.1011 94.2095 74.1011 96.1893ZM75.7383 96.1893C75.7383 94.9963 76.614 94.1714 77.6674 94.1714C78.7081 94.1714 79.5838 94.9963 79.5838 96.1893C79.5838 97.395 78.7081 98.2073 77.6674 98.2073C76.614 98.2073 75.7383 97.395 75.7383 96.1893Z" fill="#404040"/>
<path d="M82.5155 101.964H84.1273V99.248C84.1273 98.918 84.102 98.6895 84.102 98.6895H84.1273C84.1273 98.6895 84.6984 99.5779 85.9803 99.5779C87.6809 99.5779 88.9374 98.2453 88.9374 96.1893C88.9374 94.1841 87.8205 92.8007 86.0691 92.8007C84.5462 92.8007 83.9877 93.8668 83.9877 93.8668H83.9623C83.9623 93.8668 83.9877 93.6637 83.9877 93.4226V92.953H82.5155V101.964ZM84.0766 96.2274C84.0766 94.7933 84.8634 94.1841 85.7011 94.1841C86.6529 94.1841 87.3129 94.9837 87.3129 96.2147C87.3129 97.4966 86.5768 98.22 85.6884 98.22C84.6223 98.22 84.0766 97.23 84.0766 96.2274Z" fill="#404040"/>
<path d="M89.7284 98.6261C89.7284 98.6261 90.6295 99.5779 92.2413 99.5779C93.777 99.5779 94.7161 98.7149 94.7161 97.6362C94.7161 95.5548 91.5687 95.669 91.5687 94.7552C91.5687 94.3491 91.9748 94.1714 92.3936 94.1714C93.3835 94.1714 93.98 94.7298 93.98 94.7298L94.5765 93.5368C94.5765 93.5368 93.8658 92.8007 92.4063 92.8007C91.0102 92.8007 89.9315 93.4988 89.9315 94.7044C89.9315 96.7858 93.0789 96.6589 93.0789 97.6235C93.0789 98.0042 92.6855 98.2073 92.2286 98.2073C91.1752 98.2073 90.4645 97.4966 90.4645 97.4966L89.7284 98.6261Z" fill="#404040"/>
<path d="M96.5075 96.8239H97.9162L98.0432 90.4147H96.3679L96.5075 96.8239ZM96.4314 99.4256H97.9924V97.9281H96.4314V99.4256Z" fill="#404040"/>
<path d="M128.352 111.049H122.247C121.302 111.049 120.397 110.674 119.729 110.006C119.061 109.338 118.686 108.432 118.686 107.487C118.686 106.543 119.061 105.637 119.729 104.969C120.397 104.301 121.302 103.926 122.247 103.926H128.352C129.297 103.926 130.203 104.301 130.871 104.969C131.539 105.637 131.914 106.543 131.914 107.487C131.914 108.432 131.539 109.338 130.871 110.006C130.203 110.674 129.297 111.049 128.352 111.049Z" fill="#DDDDDD"/>
<path d="M170.073 126.058H163.968C163.023 126.058 162.117 125.683 161.449 125.015C160.781 124.347 160.406 123.441 160.406 122.496C160.406 121.552 160.781 120.646 161.449 119.978C162.117 119.31 163.023 118.935 163.968 118.935H170.073C171.018 118.935 171.924 119.31 172.592 119.978C173.259 120.646 173.635 121.552 173.635 122.496C173.635 123.441 173.259 124.347 172.592 125.015C171.924 125.683 171.018 126.058 170.073 126.058Z" fill="#DDDDDD"/>
<path d="M189.405 126.058H183.3C182.355 126.058 181.449 125.683 180.781 125.015C180.113 124.347 179.738 123.441 179.738 122.496C179.738 121.552 180.113 120.646 180.781 119.978C181.449 119.31 182.355 118.935 183.3 118.935H189.405C190.35 118.935 191.256 119.31 191.924 119.978C192.591 120.646 192.967 121.552 192.967 122.496C192.967 123.441 192.591 124.347 191.924 125.015C191.256 125.683 190.35 126.058 189.405 126.058Z" fill="#DDDDDD"/>
<path d="M208.739 126.058H202.634C201.689 126.058 200.783 125.683 200.115 125.015C199.447 124.347 199.072 123.441 199.072 122.496C199.072 121.552 199.447 120.646 200.115 119.978C200.783 119.31 201.689 118.935 202.634 118.935H208.739C209.684 118.935 210.59 119.31 211.258 119.978C211.925 120.646 212.301 121.552 212.301 122.496C212.301 123.441 211.925 124.347 211.258 125.015C210.59 125.683 209.684 126.058 208.739 126.058Z" fill="#DDDDDD"/>
<path d="M170.581 111.303H142.089C141.144 111.303 140.238 110.928 139.57 110.26C138.903 109.592 138.527 108.686 138.527 107.742C138.527 106.797 138.903 105.891 139.57 105.223C140.238 104.555 141.144 104.18 142.089 104.18H170.581C171.525 104.18 172.431 104.555 173.099 105.223C173.767 105.891 174.142 106.797 174.142 107.742C174.142 108.686 173.767 109.592 173.099 110.26C172.431 110.928 171.525 111.303 170.581 111.303Z" fill="#DDDDDD"/>
<path d="M150.739 125.549H122.247C121.302 125.549 120.397 125.174 119.729 124.506C119.061 123.838 118.686 122.932 118.686 121.988C118.686 121.043 119.061 120.137 119.729 119.469C120.397 118.802 121.302 118.426 122.247 118.426H150.739C151.684 118.426 152.589 118.802 153.257 119.469C153.925 120.137 154.301 121.043 154.301 121.988C154.301 122.932 153.925 123.838 153.257 124.506C152.589 125.174 151.684 125.549 150.739 125.549Z" fill="#DDDDDD"/>
<path d="M206.705 111.303H184.827C183.883 111.303 182.977 110.928 182.309 110.26C181.641 109.592 181.266 108.686 181.266 107.742C181.266 106.797 181.641 105.891 182.309 105.223C182.977 104.555 183.883 104.18 184.827 104.18H206.705C207.649 104.18 208.555 104.555 209.223 105.223C209.891 105.891 210.266 106.797 210.266 107.742C210.266 108.686 209.891 109.592 209.223 110.26C208.555 110.928 207.649 111.303 206.705 111.303Z" fill="#DDDDDD"/>
<path d="M128.352 141.067H122.247C121.302 141.067 120.397 140.692 119.729 140.024C119.061 139.356 118.686 138.45 118.686 137.506C118.686 136.561 119.061 135.655 119.729 134.987C120.397 134.319 121.302 133.944 122.247 133.944H128.352C129.297 133.944 130.203 134.319 130.871 134.987C131.539 135.655 131.914 136.561 131.914 137.506C131.914 138.45 131.539 139.356 130.871 140.024C130.203 140.692 129.297 141.067 128.352 141.067Z" fill="#DDDDDD"/>
<path d="M170.581 141.321H142.089C141.144 141.321 140.238 140.946 139.57 140.278C138.903 139.61 138.527 138.705 138.527 137.76C138.527 136.815 138.903 135.91 139.57 135.242C140.238 134.574 141.144 134.198 142.089 134.198H170.581C171.525 134.198 172.431 134.574 173.099 135.242C173.767 135.91 174.142 136.815 174.142 137.76C174.142 138.705 173.767 139.61 173.099 140.278C172.431 140.946 171.525 141.321 170.581 141.321Z" fill="#DDDDDD"/>
<path d="M206.705 141.321H184.827C183.883 141.321 182.977 140.946 182.309 140.278C181.641 139.61 181.266 138.705 181.266 137.76C181.266 136.815 181.641 135.91 182.309 135.242C182.977 134.574 183.883 134.198 184.827 134.198H206.705C207.649 134.198 208.555 134.574 209.223 135.242C209.891 135.91 210.266 136.815 210.266 137.76C210.266 138.705 209.891 139.61 209.223 140.278C208.555 140.946 207.649 141.321 206.705 141.321Z" fill="#DDDDDD"/>
<path d="M197.039 153.278C197.04 152.334 197.416 151.429 198.083 150.761C198.751 150.093 199.656 149.718 200.601 149.717H206.706C207.651 149.717 208.556 150.092 209.224 150.76C209.892 151.428 210.267 152.333 210.267 153.278C210.267 154.223 209.892 155.128 209.224 155.796C208.556 156.464 207.651 156.84 206.706 156.84H200.601C199.656 156.838 198.751 156.463 198.083 155.795C197.416 155.128 197.04 154.222 197.039 153.278Z" fill="#DDDDDD"/>
<path d="M154.811 153.532C154.812 152.588 155.187 151.683 155.855 151.015C156.523 150.347 157.428 149.972 158.372 149.971H186.864C187.809 149.971 188.714 150.346 189.382 151.014C190.05 151.682 190.426 152.588 190.426 153.532C190.426 154.477 190.05 155.383 189.382 156.051C188.714 156.718 187.809 157.094 186.864 157.094H158.372C157.428 157.093 156.523 156.717 155.855 156.049C155.187 155.382 154.812 154.476 154.811 153.532Z" fill="#DDDDDD"/>
<path d="M118.686 153.532C118.687 152.588 119.062 151.683 119.73 151.015C120.398 150.347 121.303 149.972 122.247 149.971H144.125C145.069 149.971 145.975 150.346 146.643 151.014C147.311 151.682 147.686 152.588 147.686 153.532C147.686 154.477 147.311 155.383 146.643 156.051C145.975 156.718 145.069 157.094 144.125 157.094H122.247C121.303 157.093 120.398 156.717 119.73 156.049C119.062 155.382 118.687 154.476 118.686 153.532Z" fill="#DDDDDD"/>
</svg>
