<svg width="405" height="281" viewBox="0 0 405 281" fill="none" xmlns="http://www.w3.org/2000/svg">
<path d="M0.686927 57.3532V57.4828L0.778624 57.5745L4.95293 61.7488L5.04403 61.8399L5.17287 61.8405L5.17431 61.5275C5.17287 61.8405 5.17422 61.8405 5.17691 61.8406L5.18903 61.8406L5.23736 61.8408L5.42948 61.8417L6.1885 61.8452L9.14913 61.8584C11.7425 61.87 15.5462 61.8867 20.388 61.9074C30.0715 61.9488 43.9068 62.0061 60.5144 62.0698C93.7294 62.1971 138.033 62.3499 182.388 62.4518C226.742 62.5537 271.148 62.6046 304.568 62.5282C321.277 62.49 335.241 62.42 345.079 62.3085C349.998 62.2528 353.886 62.1867 356.572 62.109C357.914 62.0702 358.958 62.0284 359.681 61.9833C360.042 61.9609 360.327 61.9373 360.532 61.9123C360.633 61.8998 360.721 61.8862 360.791 61.8707C360.826 61.863 360.863 61.8532 360.898 61.8403C360.923 61.8312 360.989 61.8061 361.047 61.7488L365.221 57.5745L365.313 57.4828V57.3532V19.7844C365.313 9.23707 356.763 0.686927 346.215 0.686927H19.7844C9.23707 0.686927 0.686927 9.23707 0.686927 19.7844V57.3532Z" fill="#F98731" stroke="#F98731" stroke-width="0.626146"/>
<path d="M333.275 26.0461H283.183C279.725 26.0461 276.922 28.8496 276.922 32.3076C276.922 35.7656 279.725 38.5691 283.183 38.5691H333.275C336.733 38.5691 339.536 35.7656 339.536 32.3076C339.536 28.8496 336.733 26.0461 333.275 26.0461Z" fill="#1B75BC"/>
<path d="M82.8161 38.5691C86.2743 38.5691 89.0776 35.7657 89.0776 32.3076C89.0776 28.8495 86.2743 26.0461 82.8161 26.0461C79.358 26.0461 76.5547 28.8495 76.5547 32.3076C76.5547 35.7657 79.358 38.5691 82.8161 38.5691Z" fill="#E5028B"/>
<path d="M57.7712 38.5691C61.2293 38.5691 64.0327 35.7657 64.0327 32.3076C64.0327 28.8495 61.2293 26.0461 57.7712 26.0461C54.3131 26.0461 51.5098 28.8495 51.5098 32.3076C51.5098 35.7657 54.3131 38.5691 57.7712 38.5691Z" fill="#1B75BC"/>
<path d="M32.7244 38.5691C36.1825 38.5691 38.9858 35.7657 38.9858 32.3076C38.9858 28.8495 36.1825 26.0461 32.7244 26.0461C29.2662 26.0461 26.4629 28.8495 26.4629 32.3076C26.4629 35.7657 29.2662 38.5691 32.7244 38.5691Z" fill="#61C5BA"/>
<path d="M1 57.04H0.686927V57.353V241.94C0.686927 252.471 9.25377 261.037 19.7844 261.037H346.215C356.746 261.037 365.313 252.471 365.313 241.94V57.353V57.04H365H1Z" fill="white" stroke="#F98731" stroke-width="0.626146"/>
<g clip-path="url(#clip0)">
<rect x="356.666" y="221" width="16.6667" height="48.3333" fill="white"/>
<path d="M403.376 261.094L375.085 209.01C372.949 205.415 369.178 203.269 364.997 203.269C360.816 203.269 357.044 205.415 354.909 209.01C354.893 209.038 354.879 209.065 354.863 209.093L326.666 261.012C324.485 264.682 324.444 269.09 326.554 272.802C328.668 276.516 332.478 278.731 336.751 278.731H393.086C397.359 278.731 401.326 276.516 403.441 272.802C405.551 269.09 405.509 264.682 403.376 261.094ZM360.305 227.117C360.305 224.525 362.406 222.425 364.997 222.425C367.589 222.425 369.689 224.525 369.689 227.117V245.886C369.689 248.477 367.588 250.578 364.997 250.578C362.406 250.578 360.305 248.477 360.305 245.886V227.117ZM364.997 269.347C361.116 269.347 357.959 266.19 357.959 262.309C357.959 258.427 361.116 255.27 364.997 255.27C368.878 255.27 372.035 258.427 372.035 262.309C372.035 266.19 368.878 269.347 364.997 269.347Z" fill="#E5028B"/>
</g>
<path d="M19.7865 131.124C19.7865 135.7 23.2845 139.264 27.7725 139.264C32.2605 139.264 35.7365 135.7 35.7365 131.124C35.7365 126.658 32.2605 123.204 27.7725 123.204C23.2845 123.204 19.7865 126.658 19.7865 131.124ZM22.0305 131.124C22.0305 127.736 24.6045 125.184 27.7725 125.184C30.9405 125.184 33.4925 127.736 33.4925 131.124C33.4925 134.622 30.9405 137.262 27.7725 137.262C24.6045 137.262 22.0305 134.622 22.0305 131.124ZM37.6568 133.412C37.6568 136.8 40.3408 139.264 43.6628 139.264C46.9848 139.264 49.6688 136.8 49.6688 133.412C49.6688 130.046 46.9848 127.604 43.6628 127.604C40.3408 127.604 37.6568 130.046 37.6568 133.412ZM39.8348 133.412C39.8348 131.102 41.5728 129.452 43.6628 129.452C45.7748 129.452 47.4908 131.102 47.4908 133.412C47.4908 135.744 45.7748 137.416 43.6628 137.416C41.5728 137.416 39.8348 135.744 39.8348 133.412ZM52.1993 143.4H54.3333V138.406C54.3333 137.834 54.2893 137.438 54.2893 137.438H54.3333C54.3333 137.438 55.3013 139.264 57.7433 139.264C60.6473 139.264 62.7813 136.976 62.7813 133.434C62.7813 129.98 60.8893 127.604 57.8973 127.604C55.1033 127.604 54.1573 129.628 54.1573 129.628H54.1133C54.1133 129.628 54.1573 129.254 54.1573 128.814V127.868H52.1993V143.4ZM54.2673 133.478C54.2673 130.64 55.8073 129.474 57.4793 129.474C59.3273 129.474 60.6253 131.036 60.6253 133.456C60.6253 135.986 59.1733 137.438 57.4133 137.438C55.3673 137.438 54.2673 135.458 54.2673 133.478ZM64.4888 137.636C64.4888 137.636 65.9848 139.264 68.7128 139.264C71.1548 139.264 72.7388 137.878 72.7388 136.03C72.7388 132.378 67.0188 132.818 67.0188 130.816C67.0188 129.848 67.9208 129.452 68.8448 129.452C70.6048 129.452 71.5948 130.442 71.5948 130.442L72.4528 128.836C72.4528 128.836 71.3088 127.604 68.8668 127.604C66.6448 127.604 64.8408 128.748 64.8408 130.772C64.8408 134.402 70.5608 133.984 70.5608 136.03C70.5608 136.932 69.6368 137.416 68.7128 137.416C66.7768 137.416 65.5228 136.118 65.5228 136.118L64.4888 137.636ZM76.1321 134.732H78.0461L78.1781 123.468H75.9781L76.1321 134.732ZM76.0001 139H78.1781V136.866H76.0001V139ZM88.3464 139H90.5244V123.468H88.3464V139ZM94.7707 134.93C94.7707 138.648 97.6087 139.088 99.0387 139.088C99.4787 139.088 99.7867 139.044 99.7867 139.044V137.152C99.7867 137.152 99.5887 137.196 99.2807 137.196C98.4667 137.196 96.9047 136.91 96.9047 134.688V129.738H99.5887V128.022H96.9047V124.81H94.8367V128.022H93.3187V129.738H94.7707V134.93ZM107.712 135.964C107.712 138.758 109.494 139.088 110.704 139.088C111.078 139.088 111.408 139.044 111.408 139.044V137.152C111.408 137.152 111.232 137.174 111.034 137.174C110.374 137.174 109.846 136.932 109.846 135.59V123.468H107.712V135.964ZM112.852 133.412C112.852 136.8 115.536 139.264 118.858 139.264C122.18 139.264 124.864 136.8 124.864 133.412C124.864 130.046 122.18 127.604 118.858 127.604C115.536 127.604 112.852 130.046 112.852 133.412ZM115.03 133.412C115.03 131.102 116.768 129.452 118.858 129.452C120.97 129.452 122.686 131.102 122.686 133.412C122.686 135.744 120.97 137.416 118.858 137.416C116.768 137.416 115.03 135.744 115.03 133.412ZM126.581 133.412C126.581 136.8 129.265 139.264 132.587 139.264C135.909 139.264 138.593 136.8 138.593 133.412C138.593 130.046 135.909 127.604 132.587 127.604C129.265 127.604 126.581 130.046 126.581 133.412ZM128.759 133.412C128.759 131.102 130.497 129.452 132.587 129.452C134.699 129.452 136.415 131.102 136.415 133.412C136.415 135.744 134.699 137.416 132.587 137.416C130.497 137.416 128.759 135.744 128.759 133.412ZM141.123 139H143.257V133.764H144.863L148.207 139H150.693L146.579 132.818V132.774L150.275 127.868H147.855L144.819 131.96H143.257V123.468H141.123V139ZM151.801 137.636C151.801 137.636 153.297 139.264 156.025 139.264C158.467 139.264 160.051 137.878 160.051 136.03C160.051 132.378 154.331 132.818 154.331 130.816C154.331 129.848 155.233 129.452 156.157 129.452C157.917 129.452 158.907 130.442 158.907 130.442L159.765 128.836C159.765 128.836 158.621 127.604 156.179 127.604C153.957 127.604 152.153 128.748 152.153 130.772C152.153 134.402 157.873 133.984 157.873 136.03C157.873 136.932 156.949 137.416 156.025 137.416C154.089 137.416 152.835 136.118 152.835 136.118L151.801 137.636ZM168.083 135.964C168.083 138.758 169.865 139.088 171.075 139.088C171.449 139.088 171.779 139.044 171.779 139.044V137.152C171.779 137.152 171.603 137.174 171.405 137.174C170.745 137.174 170.217 136.932 170.217 135.59V123.468H168.083V135.964ZM174.015 125.646H176.171V123.468H174.015V125.646ZM174.037 139H176.171V127.868H174.037V139ZM179.516 139H181.65V133.764H183.256L186.6 139H189.086L184.972 132.818V132.774L188.668 127.868H186.248L183.212 131.96H181.65V123.468H179.516V139ZM190.154 133.434C190.154 136.734 192.552 139.264 196.05 139.264C198.712 139.264 200.362 137.68 200.362 137.68L199.482 136.118C199.482 136.118 198.096 137.416 196.182 137.416C194.202 137.416 192.464 136.184 192.354 133.742H200.472C200.472 133.742 200.538 133.104 200.538 132.818C200.538 129.936 198.866 127.604 195.72 127.604C192.552 127.604 190.154 129.892 190.154 133.434ZM192.42 132.136C192.728 130.31 194.048 129.298 195.676 129.298C197.106 129.298 198.294 130.222 198.36 132.136H192.42ZM207.215 142.938C207.215 142.938 208.117 143.62 209.371 143.62C210.933 143.62 212.297 142.718 212.979 141.002L218.193 127.868H215.883L213.177 135.172C212.979 135.744 212.803 136.492 212.803 136.492H212.759C212.759 136.492 212.561 135.722 212.341 135.15L209.547 127.868H207.149L211.813 138.868L211.263 140.144C210.845 141.156 210.119 141.772 209.261 141.772C208.579 141.772 207.963 141.31 207.963 141.31L207.215 142.938ZM219.178 133.412C219.178 136.8 221.862 139.264 225.184 139.264C228.506 139.264 231.19 136.8 231.19 133.412C231.19 130.046 228.506 127.604 225.184 127.604C221.862 127.604 219.178 130.046 219.178 133.412ZM221.356 133.412C221.356 131.102 223.094 129.452 225.184 129.452C227.296 129.452 229.012 131.102 229.012 133.412C229.012 135.744 227.296 137.416 225.184 137.416C223.094 137.416 221.356 135.744 221.356 133.412ZM233.567 134.996C233.567 137.944 234.865 139.264 237.373 139.264C239.551 139.264 241.003 137.812 241.465 136.712H241.509C241.509 136.712 241.465 137.064 241.465 137.526V139H243.533V127.868H241.399V133.082C241.399 135.282 240.057 137.284 237.791 137.284C236.009 137.284 235.701 136.052 235.701 134.512V127.868H233.567V134.996ZM246.869 139H249.003V134.446C249.003 133.764 249.069 133.082 249.267 132.444C249.773 130.794 251.027 129.826 252.391 129.826C252.721 129.826 253.007 129.892 253.007 129.892V127.78C253.007 127.78 252.743 127.736 252.457 127.736C250.741 127.736 249.443 129.012 248.937 130.64H248.893C248.893 130.64 248.937 130.266 248.937 129.804V127.868H246.869V139ZM259.978 133.434C259.978 136.778 262.442 139.264 265.94 139.264C268.844 139.264 270.384 137.482 270.384 137.482L269.526 135.92C269.526 135.92 268.162 137.416 266.094 137.416C263.784 137.416 262.156 135.678 262.156 133.412C262.156 131.124 263.784 129.452 266.028 129.452C267.92 129.452 269.108 130.728 269.108 130.728L270.12 129.232C270.12 129.232 268.734 127.604 265.94 127.604C262.442 127.604 259.978 130.134 259.978 133.434ZM271.987 133.412C271.987 136.8 274.671 139.264 277.993 139.264C281.315 139.264 283.999 136.8 283.999 133.412C283.999 130.046 281.315 127.604 277.993 127.604C274.671 127.604 271.987 130.046 271.987 133.412ZM274.165 133.412C274.165 131.102 275.903 129.452 277.993 129.452C280.105 129.452 281.821 131.102 281.821 133.412C281.821 135.744 280.105 137.416 277.993 137.416C275.903 137.416 274.165 135.744 274.165 133.412ZM286.529 139H288.663V134.446C288.663 133.764 288.729 133.082 288.927 132.444C289.433 130.794 290.687 129.826 292.051 129.826C292.381 129.826 292.667 129.892 292.667 129.892V127.78C292.667 127.78 292.403 127.736 292.117 127.736C290.401 127.736 289.103 129.012 288.597 130.64H288.553C288.553 130.64 288.597 130.266 288.597 129.804V127.868H286.529V139ZM293.945 133.434C293.945 136.734 296.343 139.264 299.841 139.264C302.503 139.264 304.153 137.68 304.153 137.68L303.273 136.118C303.273 136.118 301.887 137.416 299.973 137.416C297.993 137.416 296.255 136.184 296.145 133.742H304.263C304.263 133.742 304.329 133.104 304.329 132.818C304.329 129.936 302.657 127.604 299.511 127.604C296.343 127.604 293.945 129.892 293.945 133.434ZM296.211 132.136C296.519 130.31 297.839 129.298 299.467 129.298C300.897 129.298 302.085 130.222 302.151 132.136H296.211ZM306.918 143.4H309.052V138.406C309.052 137.834 309.008 137.438 309.008 137.438H309.052C309.052 137.438 310.02 139.264 312.462 139.264C315.366 139.264 317.5 136.976 317.5 133.434C317.5 129.98 315.608 127.604 312.616 127.604C309.822 127.604 308.876 129.628 308.876 129.628H308.832C308.832 129.628 308.876 129.254 308.876 128.814V127.868H306.918V143.4ZM308.986 133.478C308.986 130.64 310.526 129.474 312.198 129.474C314.046 129.474 315.344 131.036 315.344 133.456C315.344 135.986 313.892 137.438 312.132 137.438C310.086 137.438 308.986 135.458 308.986 133.478ZM319.978 135.964C319.978 138.758 321.76 139.088 322.97 139.088C323.344 139.088 323.674 139.044 323.674 139.044V137.152C323.674 137.152 323.498 137.174 323.3 137.174C322.64 137.174 322.112 136.932 322.112 135.59V123.468H319.978V135.964ZM325.778 134.996C325.778 137.944 327.076 139.264 329.584 139.264C331.762 139.264 333.214 137.812 333.676 136.712H333.72C333.72 136.712 333.676 137.064 333.676 137.526V139H335.744V127.868H333.61V133.082C333.61 135.282 332.268 137.284 330.002 137.284C328.22 137.284 327.912 136.052 327.912 134.512V127.868H325.778V134.996ZM338.178 137.636C338.178 137.636 339.674 139.264 342.402 139.264C344.844 139.264 346.428 137.878 346.428 136.03C346.428 132.378 340.708 132.818 340.708 130.816C340.708 129.848 341.61 129.452 342.534 129.452C344.294 129.452 345.284 130.442 345.284 130.442L346.142 128.836C346.142 128.836 344.998 127.604 342.556 127.604C340.334 127.604 338.53 128.748 338.53 130.772C338.53 134.402 344.25 133.984 344.25 136.03C344.25 136.932 343.326 137.416 342.402 137.416C340.466 137.416 339.212 136.118 339.212 136.118L338.178 137.636ZM37.0317 167.636C37.0317 167.636 38.5277 169.264 41.2557 169.264C43.6977 169.264 45.2817 167.878 45.2817 166.03C45.2817 162.378 39.5617 162.818 39.5617 160.816C39.5617 159.848 40.4637 159.452 41.3877 159.452C43.1477 159.452 44.1377 160.442 44.1377 160.442L44.9957 158.836C44.9957 158.836 43.8517 157.604 41.4097 157.604C39.1877 157.604 37.3837 158.748 37.3837 160.772C37.3837 164.402 43.1037 163.984 43.1037 166.03C43.1037 166.932 42.1797 167.416 41.2557 167.416C39.3197 167.416 38.0657 166.118 38.0657 166.118L37.0317 167.636ZM47.025 163.434C47.025 166.734 49.423 169.264 52.921 169.264C55.583 169.264 57.233 167.68 57.233 167.68L56.353 166.118C56.353 166.118 54.967 167.416 53.053 167.416C51.073 167.416 49.335 166.184 49.225 163.742H57.343C57.343 163.742 57.409 163.104 57.409 162.818C57.409 159.936 55.737 157.604 52.591 157.604C49.423 157.604 47.025 159.892 47.025 163.434ZM49.291 162.136C49.599 160.31 50.919 159.298 52.547 159.298C53.977 159.298 55.165 160.222 55.231 162.136H49.291ZM59.0962 167.636C59.0962 167.636 60.5922 169.264 63.3202 169.264C65.7622 169.264 67.3462 167.878 67.3462 166.03C67.3462 162.378 61.6262 162.818 61.6262 160.816C61.6262 159.848 62.5282 159.452 63.4522 159.452C65.2122 159.452 66.2022 160.442 66.2022 160.442L67.0602 158.836C67.0602 158.836 65.9162 157.604 63.4742 157.604C61.2522 157.604 59.4482 158.748 59.4482 160.772C59.4482 164.402 65.1682 163.984 65.1682 166.03C65.1682 166.932 64.2442 167.416 63.3202 167.416C61.3842 167.416 60.1302 166.118 60.1302 166.118L59.0962 167.636ZM68.9575 167.636C68.9575 167.636 70.4535 169.264 73.1815 169.264C75.6235 169.264 77.2075 167.878 77.2075 166.03C77.2075 162.378 71.4875 162.818 71.4875 160.816C71.4875 159.848 72.3895 159.452 73.3135 159.452C75.0735 159.452 76.0635 160.442 76.0635 160.442L76.9215 158.836C76.9215 158.836 75.7775 157.604 73.3355 157.604C71.1135 157.604 69.3095 158.748 69.3095 160.772C69.3095 164.402 75.0295 163.984 75.0295 166.03C75.0295 166.932 74.1055 167.416 73.1815 167.416C71.2455 167.416 69.9915 166.118 69.9915 166.118L68.9575 167.636ZM79.6988 155.646H81.8548V153.468H79.6988V155.646ZM79.7208 169H81.8548V157.868H79.7208V169ZM84.3853 163.412C84.3853 166.8 87.0693 169.264 90.3913 169.264C93.7133 169.264 96.3973 166.8 96.3973 163.412C96.3973 160.046 93.7133 157.604 90.3913 157.604C87.0693 157.604 84.3853 160.046 84.3853 163.412ZM86.5633 163.412C86.5633 161.102 88.3013 159.452 90.3913 159.452C92.5033 159.452 94.2193 161.102 94.2193 163.412C94.2193 165.744 92.5033 167.416 90.3913 167.416C88.3013 167.416 86.5633 165.744 86.5633 163.412ZM98.9279 169H101.062V163.786C101.062 163.236 101.106 162.73 101.238 162.29C101.7 160.684 103.064 159.562 104.758 159.562C106.54 159.562 106.87 160.794 106.87 162.356V169H109.004V161.872C109.004 159.034 107.794 157.604 105.176 157.604C102.756 157.604 101.436 159.188 100.996 160.156H100.952C100.952 160.156 100.996 159.782 100.996 159.342V157.868H98.9279V169ZM117.834 169H119.968V163.918C119.968 163.412 119.99 162.906 120.1 162.466C120.518 160.882 121.662 159.54 123.29 159.54C125.006 159.54 125.226 160.882 125.226 162.334V169H127.36V163.918C127.36 163.346 127.404 162.84 127.514 162.378C127.91 160.86 129.076 159.54 130.638 159.54C132.31 159.54 132.618 160.772 132.618 162.334V169H134.752V161.872C134.752 159.034 133.586 157.604 131.078 157.604C129.274 157.604 127.734 158.792 127.118 160.134H127.074C126.7 158.462 125.6 157.604 123.73 157.604C121.992 157.604 120.43 158.858 119.902 160.156H119.858C119.858 160.156 119.902 159.782 119.902 159.342V157.868H117.834V169ZM137.041 165.876C137.041 168.098 138.911 169.264 140.825 169.264C143.487 169.264 144.389 167.064 144.389 167.064H144.433C144.433 167.064 144.389 167.438 144.389 167.944V169H146.369V161.96C146.369 159.144 144.785 157.604 141.969 157.604C139.417 157.604 137.811 158.924 137.811 158.924L138.691 160.486C138.691 160.486 140.077 159.408 141.793 159.408C143.201 159.408 144.235 160.024 144.235 161.85V162.048H143.751C141.881 162.048 137.041 162.202 137.041 165.876ZM139.197 165.766C139.197 163.764 142.101 163.654 143.707 163.654H144.257V164.006C144.257 165.656 143.091 167.548 141.287 167.548C139.901 167.548 139.197 166.668 139.197 165.766ZM148.005 172.938C148.005 172.938 148.907 173.62 150.161 173.62C151.723 173.62 153.087 172.718 153.769 171.002L158.983 157.868H156.673L153.967 165.172C153.769 165.744 153.593 166.492 153.593 166.492H153.549C153.549 166.492 153.351 165.722 153.131 165.15L150.337 157.868H147.939L152.603 168.868L152.053 170.144C151.635 171.156 150.909 171.772 150.051 171.772C149.369 171.772 148.753 171.31 148.753 171.31L148.005 172.938ZM166.432 169H168.456V168.186C168.456 167.702 168.412 167.35 168.412 167.35H168.456C168.456 167.35 169.468 169.264 171.954 169.264C174.88 169.264 177.014 166.976 177.014 163.434C177.014 159.98 175.122 157.604 172.13 157.604C169.512 157.604 168.566 159.496 168.566 159.496H168.522C168.522 159.496 168.566 159.1 168.566 158.55V153.468H166.432V169ZM168.5 163.478C168.5 160.64 170.04 159.474 171.712 159.474C173.56 159.474 174.858 161.036 174.858 163.456C174.858 165.986 173.406 167.438 171.646 167.438C169.534 167.438 168.5 165.458 168.5 163.478ZM178.853 163.434C178.853 166.734 181.251 169.264 184.749 169.264C187.411 169.264 189.061 167.68 189.061 167.68L188.181 166.118C188.181 166.118 186.795 167.416 184.881 167.416C182.901 167.416 181.163 166.184 181.053 163.742H189.171C189.171 163.742 189.237 163.104 189.237 162.818C189.237 159.936 187.565 157.604 184.419 157.604C181.251 157.604 178.853 159.892 178.853 163.434ZM181.119 162.136C181.427 160.31 182.747 159.298 184.375 159.298C185.805 159.298 186.993 160.222 187.059 162.136H181.119ZM197.455 155.646H199.611V153.468H197.455V155.646ZM197.477 169H199.611V157.868H197.477V169ZM202.955 169H205.089V163.786C205.089 163.236 205.133 162.73 205.265 162.29C205.727 160.684 207.091 159.562 208.785 159.562C210.567 159.562 210.897 160.794 210.897 162.356V169H213.031V161.872C213.031 159.034 211.821 157.604 209.203 157.604C206.783 157.604 205.463 159.188 205.023 160.156H204.979C204.979 160.156 205.023 159.782 205.023 159.342V157.868H202.955V169ZM218.851 169H221.315L225.429 157.868H223.185L220.479 165.392C220.259 166.008 220.105 166.91 220.083 166.91H220.039C220.017 166.91 219.885 166.008 219.665 165.392L216.959 157.868H214.693L218.851 169ZM226.352 165.876C226.352 168.098 228.222 169.264 230.136 169.264C232.798 169.264 233.7 167.064 233.7 167.064H233.744C233.744 167.064 233.7 167.438 233.7 167.944V169H235.68V161.96C235.68 159.144 234.096 157.604 231.28 157.604C228.728 157.604 227.122 158.924 227.122 158.924L228.002 160.486C228.002 160.486 229.388 159.408 231.104 159.408C232.512 159.408 233.546 160.024 233.546 161.85V162.048H233.062C231.192 162.048 226.352 162.202 226.352 165.876ZM228.508 165.766C228.508 163.764 231.412 163.654 233.018 163.654H233.568V164.006C233.568 165.656 232.402 167.548 230.598 167.548C229.212 167.548 228.508 166.668 228.508 165.766ZM238.745 165.964C238.745 168.758 240.527 169.088 241.737 169.088C242.111 169.088 242.441 169.044 242.441 169.044V167.152C242.441 167.152 242.265 167.174 242.067 167.174C241.407 167.174 240.879 166.932 240.879 165.59V153.468H238.745V165.964ZM244.677 155.646H246.833V153.468H244.677V155.646ZM244.699 169H246.833V157.868H244.699V169ZM249.452 163.434C249.452 166.888 251.344 169.264 254.358 169.264C257.108 169.264 258.01 167.196 258.01 167.196H258.054C258.054 167.196 258.032 167.504 258.032 167.944V169H260.056V153.468H257.922V158.616C257.922 159.034 257.966 159.364 257.966 159.364H257.922C257.922 159.364 257.064 157.604 254.49 157.604C251.542 157.604 249.452 159.892 249.452 163.434ZM251.63 163.434C251.63 160.904 253.082 159.452 254.842 159.452C256.954 159.452 257.988 161.432 257.988 163.412C257.988 166.25 256.426 167.416 254.776 167.416C252.928 167.416 251.63 165.854 251.63 163.434ZM268.227 163.412C268.227 166.8 270.911 169.264 274.233 169.264C277.555 169.264 280.239 166.8 280.239 163.412C280.239 160.046 277.555 157.604 274.233 157.604C270.911 157.604 268.227 160.046 268.227 163.412ZM270.405 163.412C270.405 161.102 272.143 159.452 274.233 159.452C276.345 159.452 278.061 161.102 278.061 163.412C278.061 165.744 276.345 167.416 274.233 167.416C272.143 167.416 270.405 165.744 270.405 163.412ZM282.77 169H284.904V164.446C284.904 163.764 284.97 163.082 285.168 162.444C285.674 160.794 286.928 159.826 288.292 159.826C288.622 159.826 288.908 159.892 288.908 159.892V157.78C288.908 157.78 288.644 157.736 288.358 157.736C286.642 157.736 285.344 159.012 284.838 160.64H284.794C284.794 160.64 284.838 160.266 284.838 159.804V157.868H282.77V169ZM296.67 169H298.804V163.786C298.804 163.258 298.848 162.752 298.98 162.312C299.442 160.706 300.828 159.562 302.5 159.562C304.282 159.562 304.612 160.794 304.612 162.356V169H306.746V161.872C306.746 159.034 305.536 157.604 302.918 157.604C300.696 157.604 299.288 159.012 298.804 160.09H298.76C298.76 160.09 298.804 159.694 298.804 159.166V153.468H296.67V169ZM309.024 165.876C309.024 168.098 310.894 169.264 312.808 169.264C315.47 169.264 316.372 167.064 316.372 167.064H316.416C316.416 167.064 316.372 167.438 316.372 167.944V169H318.352V161.96C318.352 159.144 316.768 157.604 313.952 157.604C311.4 157.604 309.794 158.924 309.794 158.924L310.674 160.486C310.674 160.486 312.06 159.408 313.776 159.408C315.184 159.408 316.218 160.024 316.218 161.85V162.048H315.734C313.864 162.048 309.024 162.202 309.024 165.876ZM311.18 165.766C311.18 163.764 314.084 163.654 315.69 163.654H316.24V164.006C316.24 165.656 315.074 167.548 313.27 167.548C311.884 167.548 311.18 166.668 311.18 165.766ZM320.647 167.636C320.647 167.636 322.143 169.264 324.871 169.264C327.313 169.264 328.897 167.878 328.897 166.03C328.897 162.378 323.177 162.818 323.177 160.816C323.177 159.848 324.079 159.452 325.003 159.452C326.763 159.452 327.753 160.442 327.753 160.442L328.611 158.836C328.611 158.836 327.467 157.604 325.025 157.604C322.803 157.604 320.999 158.748 320.999 160.772C320.999 164.402 326.719 163.984 326.719 166.03C326.719 166.932 325.795 167.416 324.871 167.416C322.935 167.416 321.681 166.118 321.681 166.118L320.647 167.636ZM143.286 193.434C143.286 196.734 145.684 199.264 149.182 199.264C151.844 199.264 153.494 197.68 153.494 197.68L152.614 196.118C152.614 196.118 151.228 197.416 149.314 197.416C147.334 197.416 145.596 196.184 145.486 193.742H153.604C153.604 193.742 153.67 193.104 153.67 192.818C153.67 189.936 151.998 187.604 148.852 187.604C145.684 187.604 143.286 189.892 143.286 193.434ZM145.552 192.136C145.86 190.31 147.18 189.298 148.808 189.298C150.238 189.298 151.426 190.222 151.492 192.136H145.552ZM160.197 194.666C160.197 194.666 160.373 195.018 160.527 195.282L162.859 199H165.279L161.495 193.28L165.081 187.868H162.639L160.571 191.256C160.395 191.542 160.197 191.916 160.197 191.916H160.153C160.153 191.916 159.955 191.542 159.779 191.256L157.711 187.868H155.269L158.855 193.28L155.071 199H157.491L159.823 195.282C159.977 195.018 160.153 194.666 160.153 194.666H160.197ZM167.431 203.4H169.565V198.406C169.565 197.834 169.521 197.438 169.521 197.438H169.565C169.565 197.438 170.533 199.264 172.975 199.264C175.879 199.264 178.013 196.976 178.013 193.434C178.013 189.98 176.121 187.604 173.129 187.604C170.335 187.604 169.389 189.628 169.389 189.628H169.345C169.345 189.628 169.389 189.254 169.389 188.814V187.868H167.431V203.4ZM169.499 193.478C169.499 190.64 171.039 189.474 172.711 189.474C174.559 189.474 175.857 191.036 175.857 193.456C175.857 195.986 174.405 197.438 172.645 197.438C170.599 197.438 169.499 195.458 169.499 193.478ZM180.6 185.646H182.756V183.468H180.6V185.646ZM180.622 199H182.756V187.868H180.622V199ZM186.101 199H188.235V194.446C188.235 193.764 188.301 193.082 188.499 192.444C189.005 190.794 190.259 189.826 191.623 189.826C191.953 189.826 192.239 189.892 192.239 189.892V187.78C192.239 187.78 191.975 187.736 191.689 187.736C189.973 187.736 188.675 189.012 188.169 190.64H188.125C188.125 190.64 188.169 190.266 188.169 189.804V187.868H186.101V199ZM193.516 193.434C193.516 196.734 195.914 199.264 199.412 199.264C202.074 199.264 203.724 197.68 203.724 197.68L202.844 196.118C202.844 196.118 201.458 197.416 199.544 197.416C197.564 197.416 195.826 196.184 195.716 193.742H203.834C203.834 193.742 203.9 193.104 203.9 192.818C203.9 189.936 202.228 187.604 199.082 187.604C195.914 187.604 193.516 189.892 193.516 193.434ZM195.782 192.136C196.09 190.31 197.41 189.298 199.038 189.298C200.468 189.298 201.656 190.222 201.722 192.136H195.782ZM205.763 193.434C205.763 196.888 207.655 199.264 210.669 199.264C213.419 199.264 214.321 197.196 214.321 197.196H214.365C214.365 197.196 214.343 197.504 214.343 197.944V199H216.367V183.468H214.233V188.616C214.233 189.034 214.277 189.364 214.277 189.364H214.233C214.233 189.364 213.375 187.604 210.801 187.604C207.853 187.604 205.763 189.892 205.763 193.434ZM207.941 193.434C207.941 190.904 209.393 189.452 211.153 189.452C213.265 189.452 214.299 191.432 214.299 193.412C214.299 196.25 212.737 197.416 211.087 197.416C209.239 197.416 207.941 195.854 207.941 193.434ZM219.702 199H221.946V196.734H219.702V199Z" fill="#F98731"/>
<defs>
<clipPath id="clip0">
<rect width="80" height="80" fill="white" transform="translate(325 201)"/>
</clipPath>
</defs>
</svg>
