<svg width="350" height="243" viewBox="0 0 350 243" fill="none" xmlns="http://www.w3.org/2000/svg">
<path d="M28.8632 38.4782C29.5975 30.5925 31.6254 22.8805 34.8661 15.6502C35.7693 13.6381 36.7634 11.6703 37.8484 9.74674C37.9028 9.64615 37.9159 9.52842 37.885 9.41838C37.854 9.30834 37.7814 9.21461 37.6825 9.15693C37.5835 9.09926 37.466 9.08215 37.3546 9.10924C37.2433 9.13632 37.1468 9.20547 37.0856 9.3021C33.1398 16.308 30.3755 23.913 28.9032 31.8131C28.4937 34.0192 28.1858 36.2409 27.9798 38.4782C27.9274 39.0425 28.8112 39.039 28.8632 38.4782Z" fill="#E6E6E6"/>
<path d="M39.9867 11.1593C43.0768 11.1593 45.5819 8.66118 45.5819 5.57963C45.5819 2.49809 43.0768 0 39.9867 0C36.8966 0 34.3916 2.49809 34.3916 5.57963C34.3916 8.66118 36.8966 11.1593 39.9867 11.1593Z" fill="#E6E6E6"/>
<path d="M29.431 38.6263C29.9074 33.5105 31.223 28.5074 33.3254 23.8168C33.9113 22.5114 34.5562 21.2348 35.2601 19.9869C35.2954 19.9217 35.3039 19.8453 35.2839 19.7739C35.2638 19.7025 35.2167 19.6417 35.1525 19.6043C35.0883 19.5669 35.012 19.5558 34.9398 19.5733C34.8675 19.5909 34.805 19.6358 34.7653 19.6985C32.2054 24.2435 30.4121 29.1773 29.457 34.3024C29.1913 35.7336 28.9916 37.1749 28.8579 38.6263C28.8239 38.9924 29.3973 38.9901 29.431 38.6263Z" fill="#E6E6E6"/>
<path d="M36.6523 20.9036C38.657 20.9036 40.2821 19.283 40.2821 17.2838C40.2821 15.2847 38.657 13.6641 36.6523 13.6641C34.6476 13.6641 33.0225 15.2847 33.0225 17.2838C33.0225 19.283 34.6476 20.9036 36.6523 20.9036Z" fill="#E6E6E6"/>
<path d="M28.7108 38.2846C25.9311 33.9587 23.8827 29.2068 22.6473 24.2189C22.3043 22.8302 22.0254 21.4281 21.8107 20.0124C21.7983 19.9393 21.7579 19.8739 21.6981 19.8299C21.6382 19.7859 21.5635 19.7668 21.4898 19.7767C21.4161 19.7866 21.3492 19.8246 21.3031 19.8828C21.2569 19.9409 21.2353 20.0147 21.2426 20.0885C22.0275 25.2423 23.6564 30.2324 26.0643 34.8593C26.7376 36.1508 27.4691 37.4097 28.2589 38.6361C28.4579 38.9456 28.9085 38.5921 28.7108 38.2846Z" fill="#E6E6E6"/>
<path d="M21.2372 20.6495C23.2419 20.6495 24.8671 19.0288 24.8671 17.0297C24.8671 15.0305 23.2419 13.4099 21.2372 13.4099C19.2326 13.4099 17.6074 15.0305 17.6074 17.0297C17.6074 19.0288 19.2326 20.6495 21.2372 20.6495Z" fill="#E6E6E6"/>
<path d="M17.5664 41.4871V34.375C17.5672 33.6679 17.8492 32.99 18.3506 32.49C18.852 31.99 19.5318 31.7088 20.2408 31.708H36.8817C37.5907 31.7088 38.2705 31.99 38.7719 32.49C39.2733 32.99 39.5553 33.6679 39.5561 34.375V41.4871C39.5553 42.1942 39.2733 42.8721 38.7719 43.372C38.2705 43.872 37.5907 44.1533 36.8817 44.1541H20.2408C19.5318 44.1533 18.852 43.872 18.3506 43.372C17.8492 42.8721 17.5672 42.1942 17.5664 41.4871Z" fill="#F2F2F2"/>
<path d="M81.4537 44.1542H74.3219C73.6128 44.1534 72.933 43.8721 72.4317 43.3721C71.9303 42.8721 71.6483 42.1943 71.6475 41.4872V12.4463C71.6483 11.7392 71.9303 11.0613 72.4317 10.5613C72.933 10.0613 73.6128 9.78009 74.3219 9.7793H81.4537C82.1627 9.78009 82.8425 10.0613 83.3439 10.5613C83.8453 11.0613 84.1273 11.7392 84.1281 12.4463V41.4872C84.1273 42.1943 83.8453 42.8721 83.3439 43.3721C82.8425 43.8721 82.1627 44.1534 81.4537 44.1542Z" fill="#F2F2F2"/>
<path d="M83.8346 15.4097H71.9482V17.7803H83.8346V15.4097Z" fill="#CCCCCC"/>
<path d="M83.8346 33.7822H71.9482V36.1529H83.8346V33.7822Z" fill="#CCCCCC"/>
<path d="M99.2837 44.1542H92.152C91.4429 44.1534 90.7631 43.8721 90.2617 43.3721C89.7604 42.8721 89.4783 42.1943 89.4775 41.4872V12.4463C89.4783 11.7392 89.7604 11.0613 90.2617 10.5613C90.7631 10.0613 91.4429 9.78009 92.152 9.7793H99.2837C99.9928 9.78009 100.673 10.0613 101.174 10.5613C101.675 11.0613 101.957 11.7392 101.958 12.4463V41.4872C101.957 42.1943 101.675 42.8721 101.174 43.3721C100.673 43.8721 99.9928 44.1534 99.2837 44.1542Z" fill="#F2F2F2"/>
<path d="M101.663 15.4097H89.7764V17.7803H101.663V15.4097Z" fill="#CCCCCC"/>
<path d="M101.663 33.7822H89.7764V36.1529H101.663V33.7822Z" fill="#CCCCCC"/>
<path d="M117.112 44.1542H109.98C109.271 44.1534 108.591 43.8721 108.09 43.3721C107.588 42.8721 107.306 42.1943 107.306 41.4872V12.4463C107.306 11.7392 107.588 11.0613 108.09 10.5613C108.591 10.0613 109.271 9.78009 109.98 9.7793H117.112C117.821 9.78009 118.501 10.0613 119.002 10.5613C119.503 11.0613 119.785 11.7392 119.786 12.4463V41.4872C119.785 42.1943 119.503 42.8721 119.002 43.3721C118.501 43.8721 117.821 44.1534 117.112 44.1542Z" fill="#F2F2F2"/>
<path d="M119.491 15.4097H107.604V17.7803H119.491V15.4097Z" fill="#CCCCCC"/>
<path d="M119.491 33.7822H107.604V36.1529H119.491V33.7822Z" fill="#CCCCCC"/>
<path d="M34.5045 92.1605H27.3727C26.6636 92.1597 25.9838 91.8785 25.4825 91.3785C24.9811 90.8785 24.699 90.2006 24.6982 89.4935V60.4527C24.699 59.7456 24.9811 59.0677 25.4825 58.5677C25.9838 58.0677 26.6636 57.7864 27.3727 57.7856H34.5045C35.2135 57.7864 35.8933 58.0677 36.3947 58.5677C36.8961 59.0677 37.1781 59.7456 37.1789 60.4527V89.4935C37.1781 90.2006 36.8961 90.8785 36.3947 91.3785C35.8933 91.8785 35.2135 92.1597 34.5045 92.1605Z" fill="#F2F2F2"/>
<path d="M36.8834 63.416H24.9971V65.7867H36.8834V63.416Z" fill="#CCCCCC"/>
<path d="M36.8834 81.7888H24.9971V84.1595H36.8834V81.7888Z" fill="#CCCCCC"/>
<path d="M52.3326 92.1605H45.2008C44.4917 92.1597 43.812 91.8785 43.3106 91.3785C42.8092 90.8785 42.5272 90.2006 42.5264 89.4935V60.4527C42.5272 59.7456 42.8092 59.0677 43.3106 58.5677C43.812 58.0677 44.4917 57.7864 45.2008 57.7856H52.3326C53.0416 57.7864 53.7214 58.0677 54.2228 58.5677C54.7242 59.0677 55.0062 59.7456 55.007 60.4527V89.4935C55.0062 90.2006 54.7242 90.8785 54.2228 91.3785C53.7214 91.8785 53.0416 92.1597 52.3326 92.1605Z" fill="#F2F2F2"/>
<path d="M54.7135 63.416H42.8271V65.7867H54.7135V63.416Z" fill="#CCCCCC"/>
<path d="M54.7135 81.7888H42.8271V84.1595H54.7135V81.7888Z" fill="#CCCCCC"/>
<path d="M70.1627 92.1605H63.0309C62.3218 92.1597 61.642 91.8785 61.1407 91.3785C60.6393 90.8785 60.3572 90.2006 60.3564 89.4935V60.4527C60.3572 59.7456 60.6393 59.0677 61.1407 58.5677C61.642 58.0677 62.3218 57.7864 63.0309 57.7856H70.1627C70.8717 57.7864 71.5515 58.0677 72.0529 58.5677C72.5543 59.0677 72.8363 59.7456 72.8371 60.4527V89.4935C72.8363 90.2006 72.5543 90.8785 72.0529 91.3785C71.5515 91.8785 70.8717 92.1597 70.1627 92.1605Z" fill="#F2F2F2"/>
<path d="M72.5416 63.416H60.6553V65.7867H72.5416V63.416Z" fill="#CCCCCC"/>
<path d="M72.5416 81.7888H60.6553V84.1595H72.5416V81.7888Z" fill="#CCCCCC"/>
<path d="M169.974 45.0433H0.594316C0.436693 45.0433 0.285535 44.9808 0.17408 44.8697C0.0626238 44.7585 0 44.6078 0 44.4506C0 44.2934 0.0626238 44.1426 0.17408 44.0315C0.285535 43.9203 0.436693 43.8579 0.594316 43.8579H169.974C170.132 43.8579 170.283 43.9203 170.394 44.0315C170.506 44.1426 170.569 44.2934 170.569 44.4506C170.569 44.6078 170.506 44.7585 170.394 44.8697C170.283 44.9808 170.132 45.0433 169.974 45.0433Z" fill="#CCCCCC"/>
<path d="M169.974 93.0493H0.594316C0.436693 93.0493 0.285535 92.9869 0.17408 92.8757C0.0626238 92.7646 0 92.6139 0 92.4567C0 92.2995 0.0626238 92.1487 0.17408 92.0376C0.285535 91.9264 0.436693 91.864 0.594316 91.864H169.974C170.132 91.864 170.283 91.9264 170.394 92.0376C170.506 92.1487 170.569 92.2995 170.569 92.4567C170.569 92.6139 170.506 92.7646 170.394 92.8757C170.283 92.9869 170.132 93.0493 169.974 93.0493Z" fill="#CCCCCC"/>
<path d="M159.942 186.088C159.942 181.505 142.646 177.791 121.311 177.791C99.9762 177.791 82.6807 181.505 82.6807 186.088C82.6807 189.025 89.7913 191.603 100.51 193.078V238.539C100.51 239.561 100.917 240.541 101.642 241.263C102.366 241.986 103.349 242.392 104.373 242.392C105.398 242.392 106.38 241.986 107.105 241.263C107.829 240.541 108.236 239.561 108.236 238.539V193.897C112.32 194.212 116.721 194.385 121.311 194.385C125.901 194.385 130.302 194.212 134.386 193.897V238.539C134.386 239.561 134.793 240.541 135.518 241.263C136.242 241.986 137.225 242.392 138.249 242.392C139.274 242.392 140.256 241.986 140.981 241.263C141.705 240.541 142.112 239.561 142.112 238.539V193.078C152.831 191.603 159.942 189.025 159.942 186.088Z" fill="#CCCCCC"/>
<path d="M152.509 234.938H159.795L163.261 206.912H152.508L152.509 234.938Z" fill="#A0616A"/>
<path d="M173.849 241.684L150.949 241.685L150.949 232.862L165.001 232.862C167.347 232.862 169.598 233.791 171.257 235.446C172.916 237.1 173.849 239.344 173.849 241.684L173.849 241.684Z" fill="#2F2E41"/>
<path d="M163.885 230.883L170.836 228.708L165.73 200.932L155.47 204.143L163.885 230.883Z" fill="#A0616A"/>
<path d="M186.27 230.949L164.421 237.787L161.772 229.369L175.179 225.173C177.418 224.472 179.844 224.687 181.924 225.771C184.004 226.854 185.567 228.717 186.27 230.949Z" fill="#2F2E41"/>
<path d="M159.012 217.983L145.683 183.092C142.692 183.792 117.615 189.326 109.216 180.408C106.338 177.352 105.776 172.924 107.548 167.246L112.449 161.104L112.602 161.112C114.455 161.209 158.028 163.645 161.015 176.752C163.534 187.802 168.133 208.403 169.483 214.454C169.619 215.081 169.526 215.737 169.219 216.3C168.912 216.864 168.412 217.3 167.81 217.527L162.45 219.531C162.151 219.643 161.835 219.701 161.516 219.701C160.973 219.7 160.443 219.536 159.996 219.23C159.549 218.923 159.206 218.489 159.012 217.983Z" fill="#2F2E41"/>
<path d="M151.282 222.132L137.953 187.241C134.963 187.941 109.886 193.475 101.487 184.557C98.6083 181.501 98.0469 177.073 99.8181 171.395L104.72 165.253L104.872 165.261C106.725 165.358 150.299 167.794 153.286 180.901C155.804 191.951 160.404 212.552 161.753 218.603C161.89 219.23 161.796 219.886 161.489 220.449C161.182 221.013 160.683 221.448 160.081 221.676L154.72 223.68C154.422 223.792 154.105 223.849 153.786 223.849C153.244 223.849 152.714 223.685 152.267 223.379C151.82 223.072 151.476 222.637 151.282 222.132Z" fill="#2F2E41"/>
<path d="M169.297 138.493C169.1 138.756 168.924 139.033 168.771 139.324L139.459 142.403L135.24 136.634L125.677 141.846L133.964 155.846L169.913 146.706C170.82 147.587 171.974 148.173 173.223 148.384C174.472 148.596 175.756 148.423 176.904 147.889C178.052 147.355 179.009 146.486 179.65 145.396C180.29 144.306 180.582 143.047 180.488 141.788C180.393 140.528 179.916 139.327 179.121 138.344C178.325 137.361 177.248 136.643 176.033 136.286C174.819 135.928 173.523 135.948 172.32 136.342C171.117 136.736 170.062 137.486 169.297 138.493V138.493Z" fill="#A0616A"/>
<path d="M99.6305 173.237C99.2294 172.949 98.916 172.556 98.7253 172.101C98.5345 171.646 98.4737 171.147 98.5497 170.66C100.203 159.789 98.3007 144.216 96.4133 133.066C96.0269 130.803 96.1772 128.482 96.8522 126.288C97.5272 124.094 98.7081 122.088 100.3 120.431C101.892 118.774 103.852 117.512 106.021 116.746C108.19 115.98 110.509 115.731 112.792 116.019C114.779 116.281 116.746 116.668 118.684 117.177C121.902 117.986 124.748 119.862 126.755 122.497C128.762 125.132 129.81 128.371 129.727 131.679C129.445 142.438 131.636 155.863 132.591 161.135C132.656 161.497 132.646 161.869 132.56 162.227C132.475 162.585 132.317 162.922 132.095 163.216C131.878 163.507 131.602 163.75 131.285 163.928C130.969 164.107 130.618 164.218 130.256 164.253C119.672 165.33 108.259 170.477 102.397 173.449C102.021 173.643 101.603 173.745 101.179 173.746C100.622 173.744 100.08 173.566 99.6305 173.237Z" fill="white"/>
<path d="M128.202 145.198C127.875 145.069 127.576 144.878 127.324 144.634C127.072 144.39 126.87 144.099 126.732 143.777L120.829 130.179C120.472 129.358 120.28 128.474 120.266 127.579C120.251 126.683 120.413 125.794 120.743 124.961C121.074 124.128 121.565 123.369 122.19 122.725C122.815 122.082 123.56 121.568 124.384 121.212C125.208 120.856 126.095 120.666 126.993 120.652C127.891 120.638 128.782 120.801 129.617 121.131C130.452 121.461 131.214 121.952 131.858 122.575C132.503 123.199 133.018 123.943 133.374 124.765L139.276 138.362C139.557 139.011 139.568 139.745 139.307 140.402C139.046 141.06 138.534 141.587 137.884 141.869L130.248 145.165C129.926 145.305 129.58 145.38 129.228 145.386C128.877 145.391 128.528 145.327 128.202 145.198H128.202Z" fill="white"/>
<path d="M141.365 137.308C141.168 137.571 140.992 137.848 140.839 138.139L111.527 141.218L107.308 135.449L97.7451 140.661L106.033 154.661L141.981 145.521C142.888 146.402 144.043 146.988 145.292 147.199C146.54 147.411 147.824 147.238 148.972 146.704C150.12 146.17 151.078 145.301 151.718 144.211C152.358 143.121 152.65 141.862 152.556 140.603C152.462 139.343 151.985 138.142 151.189 137.159C150.393 136.176 149.317 135.458 148.102 135.1C146.887 134.743 145.592 134.762 144.388 135.157C143.185 135.551 142.13 136.301 141.365 137.308V137.308Z" fill="#A0616A"/>
<path d="M100.268 145.79C99.941 145.662 99.6427 145.47 99.3903 145.226C99.138 144.982 98.9367 144.691 98.798 144.369L92.8956 130.772C92.5383 129.95 92.3467 129.066 92.332 128.171C92.3172 127.276 92.4796 126.386 92.8098 125.553C93.1399 124.721 93.6314 123.961 94.2562 123.318C94.8809 122.674 95.6267 122.16 96.4508 121.804C97.2749 121.449 98.1612 121.258 99.0591 121.244C99.957 121.231 100.849 121.393 101.684 121.723C102.518 122.053 103.28 122.544 103.924 123.167C104.569 123.791 105.084 124.535 105.44 125.357L111.342 138.954C111.623 139.604 111.634 140.337 111.373 140.995C111.113 141.652 110.601 142.18 109.951 142.461L102.315 145.757C101.993 145.898 101.646 145.973 101.295 145.978C100.943 145.984 100.595 145.92 100.268 145.79H100.268Z" fill="white"/>
<path d="M111.703 111.393C119.765 111.393 126.3 104.876 126.3 96.8369C126.3 88.7975 119.765 82.2803 111.703 82.2803C103.642 82.2803 97.1064 88.7975 97.1064 96.8369C97.1064 104.876 103.642 111.393 111.703 111.393Z" fill="#A0616A"/>
<path d="M101.268 106.828C101.206 106.645 101.186 106.45 101.21 106.259C101.235 106.067 101.303 105.884 101.409 105.723C101.516 105.561 101.658 105.426 101.825 105.328C101.991 105.23 102.178 105.172 102.372 105.157C102.767 105.178 103.154 105.279 103.509 105.454C103.864 105.629 104.18 105.873 104.437 106.173C104.966 106.781 105.581 107.307 106.263 107.736C106.969 108.091 107.926 108.041 108.329 107.364C108.707 106.728 108.448 105.877 108.219 105.139C107.637 103.261 107.311 101.314 107.25 99.3489C107.185 97.1559 107.495 94.8672 108.712 93.1567C110.284 90.9491 113.093 90.1111 115.752 90.1718C118.411 90.2326 121.027 91.0511 123.661 91.5685C124.57 91.7472 125.639 91.8385 126.247 91.1358C126.894 90.3885 126.656 89.1791 126.381 88.1702C125.667 85.5521 124.91 82.8453 123.252 80.7308C121.459 78.5337 118.898 77.0958 116.084 76.7065C113.383 76.3728 110.641 76.6833 108.083 77.6123C103.916 78.922 100.25 81.4692 97.574 84.9132C94.8156 88.5758 93.6236 93.1785 94.2588 97.715C94.8793 101.666 96.9788 105.236 100.134 107.704L101.268 106.828Z" fill="#2F2E41"/>
<path d="M45.5331 141.872C46.2674 133.986 48.2953 126.274 51.536 119.044C52.4392 117.031 53.4334 115.064 54.5184 113.14C54.5728 113.039 54.5859 112.922 54.5549 112.812C54.5239 112.702 54.4513 112.608 54.3524 112.55C54.2534 112.493 54.1359 112.475 54.0246 112.503C53.9132 112.53 53.8168 112.599 53.7556 112.695C49.8097 119.701 47.0454 127.306 45.5731 135.206C45.1636 137.413 44.8558 139.634 44.6497 141.872C44.5973 142.436 45.4811 142.432 45.5331 141.872Z" fill="#3F3D56"/>
<path d="M56.6596 114.553C59.7497 114.553 62.2547 112.055 62.2547 108.973C62.2547 105.892 59.7497 103.394 56.6596 103.394C53.5695 103.394 51.0645 105.892 51.0645 108.973C51.0645 112.055 53.5695 114.553 56.6596 114.553Z" fill="white"/>
<path d="M46.1068 142.02C46.5831 136.904 47.8988 131.901 50.0012 127.21C50.5871 125.905 51.2321 124.628 51.936 123.38C51.9713 123.315 51.9797 123.239 51.9596 123.167C51.9396 123.096 51.8925 123.035 51.8283 122.998C51.7641 122.96 51.6878 122.949 51.6156 122.967C51.5434 122.984 51.4808 123.029 51.4411 123.092C48.8812 127.637 47.0879 132.571 46.1327 137.696C45.8671 139.127 45.6674 140.568 45.5337 142.02C45.4997 142.386 46.0731 142.383 46.1068 142.02Z" fill="#3F3D56"/>
<path d="M53.3251 124.297C55.3298 124.297 56.9549 122.676 56.9549 120.677C56.9549 118.678 55.3298 117.057 53.3251 117.057C51.3204 117.057 49.6953 118.678 49.6953 120.677C49.6953 122.676 51.3204 124.297 53.3251 124.297Z" fill="white"/>
<path d="M45.3836 141.678C42.6039 137.352 40.5555 132.6 39.3202 127.612C38.9771 126.223 38.6982 124.821 38.4836 123.405C38.4712 123.332 38.4308 123.267 38.3709 123.223C38.311 123.179 38.2364 123.16 38.1627 123.17C38.089 123.18 38.022 123.218 37.9759 123.276C37.9298 123.334 37.9081 123.408 37.9155 123.482C38.7003 128.635 40.3293 133.625 42.7372 138.252C43.4104 139.544 44.1419 140.803 44.9317 142.029C45.1307 142.339 45.5814 141.985 45.3836 141.678Z" fill="#3F3D56"/>
<path d="M37.912 124.043C39.9167 124.043 41.5419 122.422 41.5419 120.423C41.5419 118.424 39.9167 116.803 37.912 116.803C35.9073 116.803 34.2822 118.424 34.2822 120.423C34.2822 122.422 35.9073 124.043 37.912 124.043Z" fill="white"/>
<path d="M34.2412 144.88V137.768C34.242 137.061 34.524 136.383 35.0254 135.883C35.5268 135.383 36.2066 135.102 36.9156 135.101H53.5565C54.2655 135.102 54.9453 135.383 55.4467 135.883C55.9481 136.383 56.2301 137.061 56.2309 137.768V144.88C56.2301 145.587 55.9481 146.265 55.4467 146.765C54.9453 147.265 54.2655 147.547 53.5565 147.547H36.9156C36.2066 147.547 35.5268 147.265 35.0254 146.765C34.524 146.265 34.242 145.587 34.2412 144.88Z" fill="#CCCCCC"/>
<path d="M183.419 142.823H136.468C135.319 142.823 134.388 143.752 134.388 144.898C134.388 146.043 135.319 146.972 136.468 146.972H183.419C184.568 146.972 185.499 146.043 185.499 144.898C185.499 143.752 184.568 142.823 183.419 142.823Z" fill="#CCCCCC"/>
<path d="M214.917 146.972H162.023C160.999 146.971 160.017 146.565 159.293 145.843C158.569 145.12 158.161 144.141 158.16 143.12V114.079C158.161 113.058 158.569 112.078 159.293 111.356C160.017 110.634 160.999 110.228 162.023 110.227H214.917C215.941 110.228 216.923 110.634 217.648 111.356C218.372 112.078 218.779 113.058 218.78 114.079V143.12C218.779 144.141 218.372 145.12 217.648 145.843C216.923 146.565 215.941 146.971 214.917 146.972Z" fill="#CCCCCC"/>
<path d="M188.471 132.156C190.441 132.156 192.037 130.563 192.037 128.599C192.037 126.636 190.441 125.043 188.471 125.043C186.502 125.043 184.905 126.636 184.905 128.599C184.905 130.563 186.502 132.156 188.471 132.156Z" fill="white"/>
<path d="M349.53 186.088C349.53 181.505 332.234 177.791 310.899 177.791C289.564 177.791 272.269 181.505 272.269 186.088C272.269 189.025 279.379 191.603 290.098 193.078V238.539C290.098 239.561 290.505 240.541 291.229 241.263C291.954 241.986 292.937 242.392 293.961 242.392C294.986 242.392 295.968 241.986 296.693 241.263C297.417 240.541 297.824 239.561 297.824 238.539V193.897C301.908 194.212 306.309 194.385 310.899 194.385C315.489 194.385 319.89 194.212 323.974 193.897V238.539C323.974 239.561 324.381 240.541 325.105 241.263C325.83 241.986 326.813 242.392 327.837 242.392C328.862 242.392 329.844 241.986 330.569 241.263C331.293 240.541 331.7 239.561 331.7 238.539V193.078C342.419 191.603 349.53 189.025 349.53 186.088Z" fill="#CCCCCC"/>
<path d="M315.173 110.142C324.364 110.142 331.814 102.712 331.814 93.5472C331.814 84.3821 324.364 76.9524 315.173 76.9524C305.983 76.9524 298.532 84.3821 298.532 93.5472C298.532 102.712 305.983 110.142 315.173 110.142Z" fill="#2F2E41"/>
<path d="M273.758 235.531H266.472L263.006 207.505H273.759L273.758 235.531Z" fill="#FFB8B8"/>
<path d="M261.266 233.455H275.318V242.278H252.419C252.419 241.119 252.648 239.972 253.092 238.901C253.537 237.831 254.189 236.858 255.01 236.039C255.832 235.219 256.807 234.57 257.881 234.126C258.954 233.683 260.105 233.455 261.266 233.455Z" fill="#2F2E41"/>
<path d="M262.383 231.476L255.432 229.3L260.538 201.525L270.798 204.735L262.383 231.476Z" fill="#FFB8B8"/>
<path d="M251.09 225.765L264.497 229.961L261.848 238.379L239.999 231.542C240.347 230.436 240.91 229.41 241.656 228.521C242.401 227.633 243.315 226.899 244.345 226.363C245.375 225.827 246.501 225.498 247.658 225.395C248.815 225.293 249.981 225.418 251.09 225.765Z" fill="#2F2E41"/>
<path d="M264.754 220.294C264.435 220.294 264.118 220.236 263.82 220.124L258.459 218.12C257.858 217.893 257.358 217.457 257.051 216.893C256.744 216.33 256.65 215.674 256.787 215.048C258.137 208.996 262.736 188.395 265.254 177.345C268.241 164.238 311.815 161.802 313.668 161.705L313.82 161.697L318.722 167.839C320.493 173.517 319.932 177.945 317.053 181.001C308.654 189.919 283.577 184.385 280.587 183.685L267.258 218.576C267.064 219.082 266.72 219.516 266.273 219.823C265.826 220.129 265.297 220.294 264.754 220.294Z" fill="#2F2E41"/>
<path d="M272.481 224.442C272.161 224.442 271.845 224.385 271.546 224.273L266.186 222.268C265.584 222.041 265.084 221.606 264.777 221.042C264.47 220.478 264.377 219.823 264.514 219.196C265.863 213.145 270.462 192.543 272.981 181.493C275.968 168.386 319.541 165.951 321.395 165.854L321.547 165.845L326.449 171.988C328.22 177.665 327.658 182.094 324.78 185.15C316.381 194.067 291.304 188.534 288.313 187.834L274.985 222.725C274.79 223.23 274.447 223.665 274 223.971C273.553 224.278 273.023 224.442 272.481 224.442Z" fill="#2F2E41"/>
<path d="M256.974 139.086C257.171 139.348 257.347 139.626 257.5 139.916L286.812 142.996L291.031 137.227L300.594 142.439L292.307 156.439L256.358 147.298C255.451 148.18 254.296 148.766 253.048 148.977C251.799 149.189 250.515 149.016 249.367 148.482C248.219 147.948 247.261 147.078 246.621 145.988C245.981 144.898 245.689 143.64 245.783 142.38C245.877 141.121 246.354 139.92 247.15 138.937C247.946 137.954 249.022 137.236 250.237 136.878C251.452 136.521 252.747 136.54 253.951 136.935C255.154 137.329 256.209 138.079 256.974 139.086Z" fill="#FFB8B8"/>
<path d="M325.089 174.339C324.665 174.337 324.247 174.236 323.87 174.042C318.009 171.07 306.596 165.923 296.012 164.846C295.65 164.81 295.299 164.7 294.982 164.521C294.666 164.342 294.39 164.1 294.173 163.808C293.951 163.514 293.793 163.178 293.707 162.82C293.622 162.462 293.612 162.09 293.677 161.728C294.632 156.456 296.823 143.031 296.541 132.271C296.457 128.963 297.506 125.725 299.513 123.09C301.52 120.454 304.366 118.578 307.584 117.77C309.521 117.26 311.489 116.874 313.476 116.612C315.759 116.323 318.078 116.572 320.247 117.338C322.416 118.105 324.375 119.367 325.968 121.024C327.56 122.681 328.741 124.687 329.416 126.881C330.091 129.075 330.241 131.396 329.854 133.658C327.967 144.808 326.064 160.381 327.718 171.253C327.794 171.74 327.733 172.239 327.542 172.693C327.352 173.148 327.038 173.542 326.637 173.83C326.188 174.159 325.646 174.337 325.089 174.339Z" fill="white"/>
<path d="M297.083 145.978C296.717 145.978 296.356 145.903 296.021 145.757L288.385 142.461C287.735 142.18 287.223 141.652 286.962 140.995C286.701 140.337 286.713 139.604 286.993 138.954L292.896 125.357C293.252 124.535 293.767 123.791 294.411 123.167C295.056 122.544 295.817 122.053 296.652 121.723C297.487 121.393 298.379 121.231 299.277 121.244C300.175 121.258 301.061 121.449 301.885 121.804C302.709 122.16 303.455 122.674 304.08 123.318C304.704 123.961 305.196 124.721 305.526 125.553C305.856 126.386 306.019 127.276 306.004 128.171C305.989 129.066 305.798 129.95 305.44 130.772L299.538 144.369C299.33 144.846 298.987 145.253 298.551 145.539C298.115 145.825 297.605 145.978 297.083 145.978Z" fill="white"/>
<path d="M314.565 111.986C322.626 111.986 329.162 105.469 329.162 97.4296C329.162 89.3903 322.626 82.873 314.565 82.873C306.503 82.873 299.968 89.3903 299.968 97.4296C299.968 105.469 306.503 111.986 314.565 111.986Z" fill="#FFB8B8"/>
<path d="M299.703 90.2781C306.617 94.4872 314.412 97.0484 322.481 97.7626L320.08 94.8937C321.828 95.5383 323.668 95.9026 325.53 95.973C327.391 95.9441 329.34 95.2298 330.396 93.7021C330.866 92.9426 331.146 92.0809 331.211 91.1903C331.276 90.2997 331.123 89.4067 330.767 88.5875C330.035 86.9535 328.897 85.5335 327.459 84.4624C324.911 82.4523 321.903 81.102 318.705 80.5319C315.507 79.9619 312.216 80.1898 309.128 81.1954C307.009 81.8268 305.112 83.0406 303.653 84.6977C302.269 86.4001 299.605 87.9168 300.313 89.9912L299.703 90.2781Z" fill="#2F2E41"/>
<path d="M317.016 78.5305C312.412 73.8747 306.841 70.282 300.694 68.0051C296.749 66.5475 292.454 65.6469 288.33 66.4747C284.205 67.3025 280.304 70.1481 279.153 74.184C278.212 77.4842 279.184 81.0375 280.644 84.1442C282.104 87.2508 284.054 90.1316 285.235 93.3542C286.44 96.6423 286.802 100.179 286.289 103.642C285.776 107.105 284.404 110.386 282.297 113.186C280.19 115.986 277.415 118.217 274.224 119.676C271.033 121.136 267.527 121.777 264.024 121.543C268.077 122.085 271.813 123.984 275.774 124.995C279.736 126.006 284.412 125.938 287.355 123.107C290.47 120.113 290.533 115.244 290.382 110.932L289.71 91.7033C289.596 88.4344 289.499 85.0608 290.681 82.0098C291.863 78.9588 294.672 76.2872 297.952 76.315C300.438 76.336 302.638 77.8377 304.631 79.3186C306.625 80.7995 308.735 82.3796 311.211 82.5999C313.687 82.8202 316.514 80.9929 316.329 78.5208" fill="#2F2E41"/>
<path d="M249.165 128.365L282.775 129.156L287.645 164.986L256.605 165.681L249.165 128.365Z" fill="#E6E6E6"/>
<path d="M284.906 137.9C285.102 138.163 285.278 138.441 285.431 138.731L314.743 141.811L318.963 136.042L328.526 141.254L320.238 155.254L284.29 146.113C283.383 146.995 282.228 147.58 280.979 147.792C279.73 148.003 278.447 147.831 277.299 147.297C276.151 146.763 275.193 145.893 274.553 144.803C273.912 143.713 273.62 142.455 273.715 141.195C273.809 139.935 274.286 138.734 275.082 137.751C275.877 136.769 276.954 136.051 278.169 135.693C279.384 135.335 280.679 135.355 281.882 135.749C283.086 136.144 284.14 136.894 284.906 137.9V137.9Z" fill="#FFB8B8"/>
<path d="M325.016 146.571C324.651 146.571 324.29 146.496 323.955 146.35L316.319 143.054C315.669 142.772 315.157 142.245 314.896 141.588C314.635 140.93 314.646 140.196 314.927 139.547L320.829 125.95C321.185 125.128 321.7 124.384 322.345 123.76C322.99 123.137 323.751 122.646 324.586 122.316C325.421 121.986 326.312 121.823 327.21 121.837C328.108 121.851 328.995 122.041 329.819 122.397C330.643 122.753 331.389 123.267 332.013 123.91C332.638 124.554 333.129 125.313 333.46 126.146C333.79 126.979 333.952 127.868 333.937 128.764C333.923 129.659 333.731 130.543 333.374 131.364L327.471 144.962C327.264 145.439 326.921 145.846 326.485 146.132C326.049 146.418 325.538 146.57 325.016 146.571Z" fill="white"/>
<path d="M255.925 146.379H19.3875C18.3629 146.379 17.3803 146.785 16.6559 147.507C15.9314 148.23 15.5244 149.21 15.5244 150.232C15.5244 151.253 15.9314 152.233 16.6559 152.956C17.3803 153.678 18.3629 154.084 19.3875 154.084H26.2221V237.947C26.2221 238.968 26.6291 239.948 27.3536 240.671C28.078 241.393 29.0606 241.799 30.0851 241.799C31.1097 241.799 32.0923 241.393 32.8167 240.671C33.5412 239.948 33.9482 238.968 33.9482 237.947V161.486L77.2566 239.765C77.77 240.648 78.6135 241.291 79.6021 241.554C80.5907 241.817 81.6436 241.679 82.5298 241.168C83.4159 240.658 84.0628 239.818 84.3286 238.833C84.5945 237.848 84.4574 236.797 83.9476 235.913L38.6752 154.084H245.524V154.134L200.28 235.913C199.768 236.797 199.629 237.849 199.894 238.836C200.159 239.823 200.806 240.664 201.694 241.175C202.581 241.686 203.635 241.824 204.625 241.56C205.615 241.295 206.458 240.65 206.971 239.765L245.524 170.08V237.947C245.524 238.968 245.932 239.948 246.656 240.671C247.38 241.393 248.363 241.799 249.388 241.799C250.412 241.799 251.395 241.393 252.119 240.671C252.844 239.948 253.251 238.968 253.251 237.947V156.115L254.375 154.084H255.925C256.95 154.084 257.932 153.678 258.657 152.956C259.381 152.233 259.788 151.253 259.788 150.232C259.788 149.21 259.381 148.23 258.657 147.507C257.932 146.785 256.95 146.379 255.925 146.379Z" fill="#3F3D56"/>
<path d="M349.437 242.668H0.854496C0.70568 242.668 0.563109 242.618 0.458032 242.53C0.352955 242.441 0.293945 242.322 0.293945 242.197C0.293945 242.072 0.352955 241.952 0.458032 241.864C0.563109 241.776 0.70568 241.726 0.854496 241.726H349.437C349.586 241.726 349.729 241.775 349.834 241.864C349.94 241.952 349.999 242.072 349.999 242.197C349.999 242.322 349.94 242.442 349.834 242.53C349.729 242.619 349.586 242.668 349.437 242.668Z" fill="#3F3D56"/>
</svg>
